<?xml version="1.0" standalone="no"?><svg xmlns:xlink="http://www.w3.org/1999/xlink" xmlns="http://www.w3.org/2000/svg" viewBox="0 0 1000 571.4285714285714" preserveAspectRatio="xMaxYMax slice"><g transform="scale(0.8804754567466432)"><rect x="0" y="0" width="1135.75" height="649" fill="#000000"/><g transform="translate(0,0) scale(2.7039999999999997) rotate(0)"><path d="M10 5L5 0L0 5L5 10L0 15L5 20L10 15L15 20L20 15L15 10L20 5L15 0L10 5Z" fill="#6c0d77"/></g><g transform="translate(54.08,0) scale(2.7039999999999997) rotate(0)"><path d="M10 5L5 0L0 5L5 10L0 15L5 20L10 15L15 20L20 15L15 10L20 5L15 0L10 5Z" fill="#40c8fe"/></g><g transform="translate(108.17,0) scale(2.7039999999999997) rotate(0)"><path d="M10 5L5 0L0 5L5 10L0 15L5 20L10 15L15 20L20 15L15 10L20 5L15 0L10 5Z" fill="#236f8d"/></g><g transform="translate(162.25,0) scale(2.7039999999999997) rotate(0)"><path d="M10 5L5 0L0 5L5 10L0 15L5 20L10 15L15 20L20 15L15 10L20 5L15 0L10 5Z" fill="#040d10"/></g><g transform="translate(216.33,0) scale(2.7039999999999997) rotate(0)"><path d="M10 5L5 0L0 5L5 10L0 15L5 20L10 15L15 20L20 15L15 10L20 5L15 0L10 5Z" fill="#d219e7"/></g><g transform="translate(270.42,0) scale(2.7039999999999997) rotate(0)"><path d="M10 5L5 0L0 5L5 10L0 15L5 20L10 15L15 20L20 15L15 10L20 5L15 0L10 5Z" fill="#051116"/></g><g transform="translate(324.5,0) scale(2.7039999999999997) rotate(0)"><path d="M10 5L5 0L0 5L5 10L0 15L5 20L10 15L15 20L20 15L15 10L20 5L15 0L10 5Z" fill="#560a5e"/></g><g transform="translate(378.58,0) scale(2.7039999999999997) rotate(0)"><path d="M10 5L5 0L0 5L5 10L0 15L5 20L10 15L15 20L20 15L15 10L20 5L15 0L10 5Z" fill="#18031b"/></g><g transform="translate(432.67,0) scale(2.7039999999999997) rotate(0)"><path d="M10 5L5 0L0 5L5 10L0 15L5 20L10 15L15 20L20 15L15 10L20 5L15 0L10 5Z" fill="#3ec2f6"/></g><rect x="486.75" y="0" width="54.083333333333336" height="54.083333333333336" fill="#000000"/><g transform="translate(486.75,0) scale(1.3519999999999999) rotate(0)"><path d="M10 5L5 0L0 5L5 10L0 15L5 20L10 15L15 20L20 15L15 10L20 5L15 0L10 5Z" fill="#164659"/></g><g transform="translate(513.79,0) scale(1.3519999999999999) rotate(0)"><path d="M10 5L5 0L0 5L5 10L0 15L5 20L10 15L15 20L20 15L15 10L20 5L15 0L10 5Z" fill="#1a5166"/></g><g transform="translate(486.75,27.04) scale(1.3519999999999999) rotate(0)"><path d="M10 5L5 0L0 5L5 10L0 15L5 20L10 15L15 20L20 15L15 10L20 5L15 0L10 5Z" fill="#236f8d"/></g><g transform="translate(513.79,27.04) scale(1.3519999999999999) rotate(0)"><path d="M10 5L5 0L0 5L5 10L0 15L5 20L10 15L15 20L20 15L15 10L20 5L15 0L10 5Z" fill="#267999"/></g><rect x="540.8333333333334" y="0" width="54.083333333333336" height="54.083333333333336" fill="#000000"/><g transform="translate(540.83,0) scale(1.3519999999999999) rotate(0)"><path d="M10 5L5 0L0 5L5 10L0 15L5 20L10 15L15 20L20 15L15 10L20 5L15 0L10 5Z" fill="#9612a4"/></g><g transform="translate(567.88,0) scale(1.3519999999999999) rotate(0)"><path d="M10 5L5 0L0 5L5 10L0 15L5 20L10 15L15 20L20 15L15 10L20 5L15 0L10 5Z" fill="#020002"/></g><g transform="translate(540.83,27.04) scale(1.3519999999999999) rotate(0)"><path d="M10 5L5 0L0 5L5 10L0 15L5 20L10 15L15 20L20 15L15 10L20 5L15 0L10 5Z" fill="#2b87ab"/></g><g transform="translate(567.88,27.04) scale(1.3519999999999999) rotate(0)"><path d="M10 5L5 0L0 5L5 10L0 15L5 20L10 15L15 20L20 15L15 10L20 5L15 0L10 5Z" fill="#1f0422"/></g><g transform="translate(594.92,0) scale(2.7039999999999997) rotate(0)"><path d="M10 5L5 0L0 5L5 10L0 15L5 20L10 15L15 20L20 15L15 10L20 5L15 0L10 5Z" fill="#2c89ae"/></g><rect x="649" y="0" width="54.083333333333336" height="54.083333333333336" fill="#000000"/><g transform="translate(649,0) scale(1.3519999999999999) rotate(0)"><path d="M10 5L5 0L0 5L5 10L0 15L5 20L10 15L15 20L20 15L15 10L20 5L15 0L10 5Z" fill="#9e13ae"/></g><g transform="translate(676.04,0) scale(1.3519999999999999) rotate(0)"><path d="M10 5L5 0L0 5L5 10L0 15L5 20L10 15L15 20L20 15L15 10L20 5L15 0L10 5Z" fill="#0a010b"/></g><g transform="translate(649,27.04) scale(1.3519999999999999) rotate(0)"><path d="M10 5L5 0L0 5L5 10L0 15L5 20L10 15L15 20L20 15L15 10L20 5L15 0L10 5Z" fill="#34a4d0"/></g><g transform="translate(676.04,27.04) scale(1.3519999999999999) rotate(0)"><path d="M10 5L5 0L0 5L5 10L0 15L5 20L10 15L15 20L20 15L15 10L20 5L15 0L10 5Z" fill="#091b22"/></g><g transform="translate(703.08,0) scale(2.7039999999999997) rotate(0)"><path d="M10 5L5 0L0 5L5 10L0 15L5 20L10 15L15 20L20 15L15 10L20 5L15 0L10 5Z" fill="#2d8cb2"/></g><rect x="757.1666666666667" y="0" width="54.083333333333336" height="54.083333333333336" fill="#000000"/><g transform="translate(757.17,0) scale(1.3519999999999999) rotate(0)"><path d="M10 5L5 0L0 5L5 10L0 15L5 20L10 15L15 20L20 15L15 10L20 5L15 0L10 5Z" fill="#2c8aaf"/></g><g transform="translate(784.21,0) scale(1.3519999999999999) rotate(0)"><path d="M10 5L5 0L0 5L5 10L0 15L5 20L10 15L15 20L20 15L15 10L20 5L15 0L10 5Z" fill="#339fca"/></g><g transform="translate(757.17,27.04) scale(1.3519999999999999) rotate(0)"><path d="M10 5L5 0L0 5L5 10L0 15L5 20L10 15L15 20L20 15L15 10L20 5L15 0L10 5Z" fill="#091d25"/></g><g transform="translate(784.21,27.04) scale(1.3519999999999999) rotate(0)"><path d="M10 5L5 0L0 5L5 10L0 15L5 20L10 15L15 20L20 15L15 10L20 5L15 0L10 5Z" fill="#851092"/></g><rect x="811.25" y="0" width="54.083333333333336" height="54.083333333333336" fill="#000000"/><g transform="translate(811.25,0) scale(1.3519999999999999) rotate(0)"><path d="M10 5L5 0L0 5L5 10L0 15L5 20L10 15L15 20L20 15L15 10L20 5L15 0L10 5Z" fill="#140216"/></g><g transform="translate(838.29,0) scale(1.3519999999999999) rotate(0)"><path d="M10 5L5 0L0 5L5 10L0 15L5 20L10 15L15 20L20 15L15 10L20 5L15 0L10 5Z" fill="#2b87ab"/></g><g transform="translate(811.25,27.04) scale(1.3519999999999999) rotate(0)"><path d="M10 5L5 0L0 5L5 10L0 15L5 20L10 15L15 20L20 15L15 10L20 5L15 0L10 5Z" fill="#d81aee"/></g><g transform="translate(838.29,27.04) scale(1.3519999999999999) rotate(0)"><path d="M10 5L5 0L0 5L5 10L0 15L5 20L10 15L15 20L20 15L15 10L20 5L15 0L10 5Z" fill="#800f8d"/></g><g transform="translate(865.33,0) scale(2.7039999999999997) rotate(0)"><path d="M10 5L5 0L0 5L5 10L0 15L5 20L10 15L15 20L20 15L15 10L20 5L15 0L10 5Z" fill="#d71aed"/></g><g transform="translate(919.42,0) scale(2.7039999999999997) rotate(0)"><path d="M10 5L5 0L0 5L5 10L0 15L5 20L10 15L15 20L20 15L15 10L20 5L15 0L10 5Z" fill="#3ab5e6"/></g><g transform="translate(973.5,0) scale(2.7039999999999997) rotate(0)"><path d="M10 5L5 0L0 5L5 10L0 15L5 20L10 15L15 20L20 15L15 10L20 5L15 0L10 5Z" fill="#3e0744"/></g><g transform="translate(1027.58,0) scale(2.7039999999999997) rotate(0)"><path d="M10 5L5 0L0 5L5 10L0 15L5 20L10 15L15 20L20 15L15 10L20 5L15 0L10 5Z" fill="#133a4a"/></g><rect x="1081.6666666666667" y="0" width="54.083333333333336" height="54.083333333333336" fill="#000000"/><g transform="translate(1081.67,0) scale(1.3519999999999999) rotate(0)"><path d="M10 5L5 0L0 5L5 10L0 15L5 20L10 15L15 20L20 15L15 10L20 5L15 0L10 5Z" fill="#3f0846"/></g><g transform="translate(1108.71,0) scale(1.3519999999999999) rotate(0)"><path d="M10 5L5 0L0 5L5 10L0 15L5 20L10 15L15 20L20 15L15 10L20 5L15 0L10 5Z" fill="#780e84"/></g><g transform="translate(1081.67,27.04) scale(1.3519999999999999) rotate(0)"><path d="M10 5L5 0L0 5L5 10L0 15L5 20L10 15L15 20L20 15L15 10L20 5L15 0L10 5Z" fill="#040e12"/></g><g transform="translate(1108.71,27.04) scale(1.3519999999999999) rotate(0)"><path d="M10 5L5 0L0 5L5 10L0 15L5 20L10 15L15 20L20 15L15 10L20 5L15 0L10 5Z" fill="#030a0d"/></g><g transform="translate(0,54.08) scale(2.7039999999999997) rotate(0)"><path d="M10 5L5 0L0 5L5 10L0 15L5 20L10 15L15 20L20 15L15 10L20 5L15 0L10 5Z" fill="#c418d7"/></g><g transform="translate(54.08,54.08) scale(2.7039999999999997) rotate(0)"><path d="M10 5L5 0L0 5L5 10L0 15L5 20L10 15L15 20L20 15L15 10L20 5L15 0L10 5Z" fill="#770e83"/></g><g transform="translate(108.17,54.08) scale(2.7039999999999997) rotate(0)"><path d="M10 5L5 0L0 5L5 10L0 15L5 20L10 15L15 20L20 15L15 10L20 5L15 0L10 5Z" fill="#cf19e3"/></g><g transform="translate(162.25,54.08) scale(2.7039999999999997) rotate(0)"><path d="M10 5L5 0L0 5L5 10L0 15L5 20L10 15L15 20L20 15L15 10L20 5L15 0L10 5Z" fill="#600c6a"/></g><g transform="translate(216.33,54.08) scale(2.7039999999999997) rotate(0)"><path d="M10 5L5 0L0 5L5 10L0 15L5 20L10 15L15 20L20 15L15 10L20 5L15 0L10 5Z" fill="#2e90b7"/></g><g transform="translate(270.42,54.08) scale(2.7039999999999997) rotate(0)"><path d="M10 5L5 0L0 5L5 10L0 15L5 20L10 15L15 20L20 15L15 10L20 5L15 0L10 5Z" fill="#d51aea"/></g><g transform="translate(324.5,54.08) scale(2.7039999999999997) rotate(0)"><path d="M10 5L5 0L0 5L5 10L0 15L5 20L10 15L15 20L20 15L15 10L20 5L15 0L10 5Z" fill="#144051"/></g><g transform="translate(378.58,54.08) scale(2.7039999999999997) rotate(0)"><path d="M10 5L5 0L0 5L5 10L0 15L5 20L10 15L15 20L20 15L15 10L20 5L15 0L10 5Z" fill="#103340"/></g><rect x="432.6666666666667" y="54.083333333333336" width="54.083333333333336" height="54.083333333333336" fill="#000000"/><g transform="translate(432.67,54.08) scale(1.3519999999999999) rotate(0)"><path d="M10 5L5 0L0 5L5 10L0 15L5 20L10 15L15 20L20 15L15 10L20 5L15 0L10 5Z" fill="#ae15bf"/></g><g transform="translate(459.71,54.08) scale(1.3519999999999999) rotate(0)"><path d="M10 5L5 0L0 5L5 10L0 15L5 20L10 15L15 20L20 15L15 10L20 5L15 0L10 5Z" fill="#510a58"/></g><g transform="translate(432.67,81.13) scale(1.3519999999999999) rotate(0)"><path d="M10 5L5 0L0 5L5 10L0 15L5 20L10 15L15 20L20 15L15 10L20 5L15 0L10 5Z" fill="#ae15c0"/></g><g transform="translate(459.71,81.13) scale(1.3519999999999999) rotate(0)"><path d="M10 5L5 0L0 5L5 10L0 15L5 20L10 15L15 20L20 15L15 10L20 5L15 0L10 5Z" fill="#2b86aa"/></g><g transform="translate(486.75,54.08) scale(2.7039999999999997) rotate(0)"><path d="M10 5L5 0L0 5L5 10L0 15L5 20L10 15L15 20L20 15L15 10L20 5L15 0L10 5Z" fill="#8c119a"/></g><g transform="translate(540.83,54.08) scale(2.7039999999999997) rotate(0)"><path d="M10 5L5 0L0 5L5 10L0 15L5 20L10 15L15 20L20 15L15 10L20 5L15 0L10 5Z" fill="#3d0743"/></g><g transform="translate(594.92,54.08) scale(2.7039999999999997) rotate(0)"><path d="M10 5L5 0L0 5L5 10L0 15L5 20L10 15L15 20L20 15L15 10L20 5L15 0L10 5Z" fill="#e11bf7"/></g><rect x="649" y="54.083333333333336" width="54.083333333333336" height="54.083333333333336" fill="#000000"/><g transform="translate(649,54.08) scale(1.3519999999999999) rotate(0)"><path d="M10 5L5 0L0 5L5 10L0 15L5 20L10 15L15 20L20 15L15 10L20 5L15 0L10 5Z" fill="#1d0420"/></g><g transform="translate(676.04,54.08) scale(1.3519999999999999) rotate(0)"><path d="M10 5L5 0L0 5L5 10L0 15L5 20L10 15L15 20L20 15L15 10L20 5L15 0L10 5Z" fill="#0c252f"/></g><g transform="translate(649,81.13) scale(1.3519999999999999) rotate(0)"><path d="M10 5L5 0L0 5L5 10L0 15L5 20L10 15L15 20L20 15L15 10L20 5L15 0L10 5Z" fill="#3d0743"/></g><g transform="translate(676.04,81.13) scale(1.3519999999999999) rotate(0)"><path d="M10 5L5 0L0 5L5 10L0 15L5 20L10 15L15 20L20 15L15 10L20 5L15 0L10 5Z" fill="#891197"/></g><g transform="translate(703.08,54.08) scale(2.7039999999999997) rotate(0)"><path d="M10 5L5 0L0 5L5 10L0 15L5 20L10 15L15 20L20 15L15 10L20 5L15 0L10 5Z" fill="#3dc1f5"/></g><g transform="translate(757.17,54.08) scale(2.7039999999999997) rotate(0)"><path d="M10 5L5 0L0 5L5 10L0 15L5 20L10 15L15 20L20 15L15 10L20 5L15 0L10 5Z" fill="#ad15bf"/></g><g transform="translate(811.25,54.08) scale(2.7039999999999997) rotate(0)"><path d="M10 5L5 0L0 5L5 10L0 15L5 20L10 15L15 20L20 15L15 10L20 5L15 0L10 5Z" fill="#8e119c"/></g><g transform="translate(865.33,54.08) scale(2.7039999999999997) rotate(0)"><path d="M10 5L5 0L0 5L5 10L0 15L5 20L10 15L15 20L20 15L15 10L20 5L15 0L10 5Z" fill="#4f0a57"/></g><g transform="translate(919.42,54.08) scale(2.7039999999999997) rotate(0)"><path d="M10 5L5 0L0 5L5 10L0 15L5 20L10 15L15 20L20 15L15 10L20 5L15 0L10 5Z" fill="#7f0f8c"/></g><g transform="translate(973.5,54.08) scale(2.7039999999999997) rotate(0)"><path d="M10 5L5 0L0 5L5 10L0 15L5 20L10 15L15 20L20 15L15 10L20 5L15 0L10 5Z" fill="#a314b3"/></g><g transform="translate(1027.58,54.08) scale(2.7039999999999997) rotate(0)"><path d="M10 5L5 0L0 5L5 10L0 15L5 20L10 15L15 20L20 15L15 10L20 5L15 0L10 5Z" fill="#236d8a"/></g><g transform="translate(1081.67,54.08) scale(2.7039999999999997) rotate(0)"><path d="M10 5L5 0L0 5L5 10L0 15L5 20L10 15L15 20L20 15L15 10L20 5L15 0L10 5Z" fill="#750e80"/></g><g transform="translate(0,108.17) scale(2.7039999999999997) rotate(0)"><path d="M10 5L5 0L0 5L5 10L0 15L5 20L10 15L15 20L20 15L15 10L20 5L15 0L10 5Z" fill="#3ab6e7"/></g><rect x="54.083333333333336" y="108.16666666666667" width="54.083333333333336" height="54.083333333333336" fill="#000000"/><g transform="translate(54.08,108.17) scale(1.3519999999999999) rotate(0)"><path d="M10 5L5 0L0 5L5 10L0 15L5 20L10 15L15 20L20 15L15 10L20 5L15 0L10 5Z" fill="#c918dc"/></g><g transform="translate(81.13,108.17) scale(1.3519999999999999) rotate(0)"><path d="M10 5L5 0L0 5L5 10L0 15L5 20L10 15L15 20L20 15L15 10L20 5L15 0L10 5Z" fill="#3096be"/></g><g transform="translate(54.08,135.21) scale(1.3519999999999999) rotate(0)"><path d="M10 5L5 0L0 5L5 10L0 15L5 20L10 15L15 20L20 15L15 10L20 5L15 0L10 5Z" fill="#130215"/></g><g transform="translate(81.13,135.21) scale(1.3519999999999999) rotate(0)"><path d="M10 5L5 0L0 5L5 10L0 15L5 20L10 15L15 20L20 15L15 10L20 5L15 0L10 5Z" fill="#040c0f"/></g><rect x="108.16666666666667" y="108.16666666666667" width="54.083333333333336" height="54.083333333333336" fill="#000000"/><g transform="translate(108.17,108.17) scale(1.3519999999999999) rotate(0)"><path d="M10 5L5 0L0 5L5 10L0 15L5 20L10 15L15 20L20 15L15 10L20 5L15 0L10 5Z" fill="#4f0a57"/></g><g transform="translate(135.21,108.17) scale(1.3519999999999999) rotate(0)"><path d="M10 5L5 0L0 5L5 10L0 15L5 20L10 15L15 20L20 15L15 10L20 5L15 0L10 5Z" fill="#1f637d"/></g><g transform="translate(108.17,135.21) scale(1.3519999999999999) rotate(0)"><path d="M10 5L5 0L0 5L5 10L0 15L5 20L10 15L15 20L20 15L15 10L20 5L15 0L10 5Z" fill="#2f95bd"/></g><g transform="translate(135.21,135.21) scale(1.3519999999999999) rotate(0)"><path d="M10 5L5 0L0 5L5 10L0 15L5 20L10 15L15 20L20 15L15 10L20 5L15 0L10 5Z" fill="#ba16cd"/></g><g transform="translate(162.25,108.17) scale(2.7039999999999997) rotate(0)"><path d="M10 5L5 0L0 5L5 10L0 15L5 20L10 15L15 20L20 15L15 10L20 5L15 0L10 5Z" fill="#680d72"/></g><g transform="translate(216.33,108.17) scale(2.7039999999999997) rotate(0)"><path d="M10 5L5 0L0 5L5 10L0 15L5 20L10 15L15 20L20 15L15 10L20 5L15 0L10 5Z" fill="#9b13ab"/></g><g transform="translate(270.42,108.17) scale(2.7039999999999997) rotate(0)"><path d="M10 5L5 0L0 5L5 10L0 15L5 20L10 15L15 20L20 15L15 10L20 5L15 0L10 5Z" fill="#ae15bf"/></g><g transform="translate(324.5,108.17) scale(2.7039999999999997) rotate(0)"><path d="M10 5L5 0L0 5L5 10L0 15L5 20L10 15L15 20L20 15L15 10L20 5L15 0L10 5Z" fill="#e21bf9"/></g><rect x="378.58333333333337" y="108.16666666666667" width="54.083333333333336" height="54.083333333333336" fill="#000000"/><g transform="translate(378.58,108.17) scale(1.3519999999999999) rotate(0)"><path d="M10 5L5 0L0 5L5 10L0 15L5 20L10 15L15 20L20 15L15 10L20 5L15 0L10 5Z" fill="#1d5a72"/></g><g transform="translate(405.63,108.17) scale(1.3519999999999999) rotate(0)"><path d="M10 5L5 0L0 5L5 10L0 15L5 20L10 15L15 20L20 15L15 10L20 5L15 0L10 5Z" fill="#c117d4"/></g><g transform="translate(378.58,135.21) scale(1.3519999999999999) rotate(0)"><path d="M10 5L5 0L0 5L5 10L0 15L5 20L10 15L15 20L20 15L15 10L20 5L15 0L10 5Z" fill="#bd17d0"/></g><g transform="translate(405.63,135.21) scale(1.3519999999999999) rotate(0)"><path d="M10 5L5 0L0 5L5 10L0 15L5 20L10 15L15 20L20 15L15 10L20 5L15 0L10 5Z" fill="#a414b4"/></g><rect x="432.6666666666667" y="108.16666666666667" width="54.083333333333336" height="54.083333333333336" fill="#000000"/><g transform="translate(432.67,108.17) scale(1.3519999999999999) rotate(0)"><path d="M10 5L5 0L0 5L5 10L0 15L5 20L10 15L15 20L20 15L15 10L20 5L15 0L10 5Z" fill="#164456"/></g><g transform="translate(459.71,108.17) scale(1.3519999999999999) rotate(0)"><path d="M10 5L5 0L0 5L5 10L0 15L5 20L10 15L15 20L20 15L15 10L20 5L15 0L10 5Z" fill="#9712a6"/></g><g transform="translate(432.67,135.21) scale(1.3519999999999999) rotate(0)"><path d="M10 5L5 0L0 5L5 10L0 15L5 20L10 15L15 20L20 15L15 10L20 5L15 0L10 5Z" fill="#010203"/></g><g transform="translate(459.71,135.21) scale(1.3519999999999999) rotate(0)"><path d="M10 5L5 0L0 5L5 10L0 15L5 20L10 15L15 20L20 15L15 10L20 5L15 0L10 5Z" fill="#3cbbee"/></g><g transform="translate(486.75,108.17) scale(2.7039999999999997) rotate(0)"><path d="M10 5L5 0L0 5L5 10L0 15L5 20L10 15L15 20L20 15L15 10L20 5L15 0L10 5Z" fill="#d51aea"/></g><g transform="translate(540.83,108.17) scale(2.7039999999999997) rotate(0)"><path d="M10 5L5 0L0 5L5 10L0 15L5 20L10 15L15 20L20 15L15 10L20 5L15 0L10 5Z" fill="#3ec4f9"/></g><g transform="translate(594.92,108.17) scale(2.7039999999999997) rotate(0)"><path d="M10 5L5 0L0 5L5 10L0 15L5 20L10 15L15 20L20 15L15 10L20 5L15 0L10 5Z" fill="#4d0954"/></g><g transform="translate(649,108.17) scale(2.7039999999999997) rotate(0)"><path d="M10 5L5 0L0 5L5 10L0 15L5 20L10 15L15 20L20 15L15 10L20 5L15 0L10 5Z" fill="#194e62"/></g><rect x="703.0833333333334" y="108.16666666666667" width="54.083333333333336" height="54.083333333333336" fill="#000000"/><g transform="translate(703.08,108.17) scale(1.3519999999999999) rotate(0)"><path d="M10 5L5 0L0 5L5 10L0 15L5 20L10 15L15 20L20 15L15 10L20 5L15 0L10 5Z" fill="#330638"/></g><g transform="translate(730.13,108.17) scale(1.3519999999999999) rotate(0)"><path d="M10 5L5 0L0 5L5 10L0 15L5 20L10 15L15 20L20 15L15 10L20 5L15 0L10 5Z" fill="#236d8b"/></g><g transform="translate(703.08,135.21) scale(1.3519999999999999) rotate(0)"><path d="M10 5L5 0L0 5L5 10L0 15L5 20L10 15L15 20L20 15L15 10L20 5L15 0L10 5Z" fill="#1a031d"/></g><g transform="translate(730.13,135.21) scale(1.3519999999999999) rotate(0)"><path d="M10 5L5 0L0 5L5 10L0 15L5 20L10 15L15 20L20 15L15 10L20 5L15 0L10 5Z" fill="#123948"/></g><g transform="translate(757.17,108.17) scale(2.7039999999999997) rotate(0)"><path d="M10 5L5 0L0 5L5 10L0 15L5 20L10 15L15 20L20 15L15 10L20 5L15 0L10 5Z" fill="#236d8a"/></g><rect x="811.25" y="108.16666666666667" width="54.083333333333336" height="54.083333333333336" fill="#000000"/><g transform="translate(811.25,108.17) scale(1.3519999999999999) rotate(0)"><path d="M10 5L5 0L0 5L5 10L0 15L5 20L10 15L15 20L20 15L15 10L20 5L15 0L10 5Z" fill="#e01bf7"/></g><g transform="translate(838.29,108.17) scale(1.3519999999999999) rotate(0)"><path d="M10 5L5 0L0 5L5 10L0 15L5 20L10 15L15 20L20 15L15 10L20 5L15 0L10 5Z" fill="#ab15bb"/></g><g transform="translate(811.25,135.21) scale(1.3519999999999999) rotate(0)"><path d="M10 5L5 0L0 5L5 10L0 15L5 20L10 15L15 20L20 15L15 10L20 5L15 0L10 5Z" fill="#051015"/></g><g transform="translate(838.29,135.21) scale(1.3519999999999999) rotate(0)"><path d="M10 5L5 0L0 5L5 10L0 15L5 20L10 15L15 20L20 15L15 10L20 5L15 0L10 5Z" fill="#0f303d"/></g><g transform="translate(865.33,108.17) scale(2.7039999999999997) rotate(0)"><path d="M10 5L5 0L0 5L5 10L0 15L5 20L10 15L15 20L20 15L15 10L20 5L15 0L10 5Z" fill="#030b0e"/></g><g transform="translate(919.42,108.17) scale(2.7039999999999997) rotate(0)"><path d="M10 5L5 0L0 5L5 10L0 15L5 20L10 15L15 20L20 15L15 10L20 5L15 0L10 5Z" fill="#3199c2"/></g><g transform="translate(973.5,108.17) scale(2.7039999999999997) rotate(0)"><path d="M10 5L5 0L0 5L5 10L0 15L5 20L10 15L15 20L20 15L15 10L20 5L15 0L10 5Z" fill="#230427"/></g><g transform="translate(1027.58,108.17) scale(2.7039999999999997) rotate(0)"><path d="M10 5L5 0L0 5L5 10L0 15L5 20L10 15L15 20L20 15L15 10L20 5L15 0L10 5Z" fill="#35a6d2"/></g><rect x="1081.6666666666667" y="108.16666666666667" width="54.083333333333336" height="54.083333333333336" fill="#000000"/><g transform="translate(1081.67,108.17) scale(1.3519999999999999) rotate(0)"><path d="M10 5L5 0L0 5L5 10L0 15L5 20L10 15L15 20L20 15L15 10L20 5L15 0L10 5Z" fill="#d81aed"/></g><g transform="translate(1108.71,108.17) scale(1.3519999999999999) rotate(0)"><path d="M10 5L5 0L0 5L5 10L0 15L5 20L10 15L15 20L20 15L15 10L20 5L15 0L10 5Z" fill="#070108"/></g><g transform="translate(1081.67,135.21) scale(1.3519999999999999) rotate(0)"><path d="M10 5L5 0L0 5L5 10L0 15L5 20L10 15L15 20L20 15L15 10L20 5L15 0L10 5Z" fill="#630c6d"/></g><g transform="translate(1108.71,135.21) scale(1.3519999999999999) rotate(0)"><path d="M10 5L5 0L0 5L5 10L0 15L5 20L10 15L15 20L20 15L15 10L20 5L15 0L10 5Z" fill="#174a5d"/></g><g transform="translate(0,162.25) scale(2.7039999999999997) rotate(0)"><path d="M10 5L5 0L0 5L5 10L0 15L5 20L10 15L15 20L20 15L15 10L20 5L15 0L10 5Z" fill="#0e2b37"/></g><rect x="54.083333333333336" y="162.25" width="54.083333333333336" height="54.083333333333336" fill="#000000"/><g transform="translate(54.08,162.25) scale(1.3519999999999999) rotate(0)"><path d="M10 5L5 0L0 5L5 10L0 15L5 20L10 15L15 20L20 15L15 10L20 5L15 0L10 5Z" fill="#164456"/></g><g transform="translate(81.13,162.25) scale(1.3519999999999999) rotate(0)"><path d="M10 5L5 0L0 5L5 10L0 15L5 20L10 15L15 20L20 15L15 10L20 5L15 0L10 5Z" fill="#2d0532"/></g><g transform="translate(54.08,189.29) scale(1.3519999999999999) rotate(0)"><path d="M10 5L5 0L0 5L5 10L0 15L5 20L10 15L15 20L20 15L15 10L20 5L15 0L10 5Z" fill="#123847"/></g><g transform="translate(81.13,189.29) scale(1.3519999999999999) rotate(0)"><path d="M10 5L5 0L0 5L5 10L0 15L5 20L10 15L15 20L20 15L15 10L20 5L15 0L10 5Z" fill="#123948"/></g><rect x="108.16666666666667" y="162.25" width="54.083333333333336" height="54.083333333333336" fill="#000000"/><g transform="translate(108.17,162.25) scale(1.3519999999999999) rotate(0)"><path d="M10 5L5 0L0 5L5 10L0 15L5 20L10 15L15 20L20 15L15 10L20 5L15 0L10 5Z" fill="#140216"/></g><g transform="translate(135.21,162.25) scale(1.3519999999999999) rotate(0)"><path d="M10 5L5 0L0 5L5 10L0 15L5 20L10 15L15 20L20 15L15 10L20 5L15 0L10 5Z" fill="#143e4f"/></g><g transform="translate(108.17,189.29) scale(1.3519999999999999) rotate(0)"><path d="M10 5L5 0L0 5L5 10L0 15L5 20L10 15L15 20L20 15L15 10L20 5L15 0L10 5Z" fill="#660c71"/></g><g transform="translate(135.21,189.29) scale(1.3519999999999999) rotate(0)"><path d="M10 5L5 0L0 5L5 10L0 15L5 20L10 15L15 20L20 15L15 10L20 5L15 0L10 5Z" fill="#d51aea"/></g><rect x="162.25" y="162.25" width="54.083333333333336" height="54.083333333333336" fill="#000000"/><g transform="translate(162.25,162.25) scale(1.3519999999999999) rotate(0)"><path d="M10 5L5 0L0 5L5 10L0 15L5 20L10 15L15 20L20 15L15 10L20 5L15 0L10 5Z" fill="#257494"/></g><g transform="translate(189.29,162.25) scale(1.3519999999999999) rotate(0)"><path d="M10 5L5 0L0 5L5 10L0 15L5 20L10 15L15 20L20 15L15 10L20 5L15 0L10 5Z" fill="#560a5f"/></g><g transform="translate(162.25,189.29) scale(1.3519999999999999) rotate(0)"><path d="M10 5L5 0L0 5L5 10L0 15L5 20L10 15L15 20L20 15L15 10L20 5L15 0L10 5Z" fill="#c017d4"/></g><g transform="translate(189.29,189.29) scale(1.3519999999999999) rotate(0)"><path d="M10 5L5 0L0 5L5 10L0 15L5 20L10 15L15 20L20 15L15 10L20 5L15 0L10 5Z" fill="#17485c"/></g><rect x="216.33333333333334" y="162.25" width="54.083333333333336" height="54.083333333333336" fill="#000000"/><g transform="translate(216.33,162.25) scale(1.3519999999999999) rotate(0)"><path d="M10 5L5 0L0 5L5 10L0 15L5 20L10 15L15 20L20 15L15 10L20 5L15 0L10 5Z" fill="#154254"/></g><g transform="translate(243.38,162.25) scale(1.3519999999999999) rotate(0)"><path d="M10 5L5 0L0 5L5 10L0 15L5 20L10 15L15 20L20 15L15 10L20 5L15 0L10 5Z" fill="#081a21"/></g><g transform="translate(216.33,189.29) scale(1.3519999999999999) rotate(0)"><path d="M10 5L5 0L0 5L5 10L0 15L5 20L10 15L15 20L20 15L15 10L20 5L15 0L10 5Z" fill="#2c8ab0"/></g><g transform="translate(243.38,189.29) scale(1.3519999999999999) rotate(0)"><path d="M10 5L5 0L0 5L5 10L0 15L5 20L10 15L15 20L20 15L15 10L20 5L15 0L10 5Z" fill="#1b031d"/></g><g transform="translate(270.42,162.25) scale(2.7039999999999997) rotate(0)"><path d="M10 5L5 0L0 5L5 10L0 15L5 20L10 15L15 20L20 15L15 10L20 5L15 0L10 5Z" fill="#051116"/></g><g transform="translate(324.5,162.25) scale(2.7039999999999997) rotate(0)"><path d="M10 5L5 0L0 5L5 10L0 15L5 20L10 15L15 20L20 15L15 10L20 5L15 0L10 5Z" fill="#5a0b63"/></g><g transform="translate(378.58,162.25) scale(2.7039999999999997) rotate(0)"><path d="M10 5L5 0L0 5L5 10L0 15L5 20L10 15L15 20L20 15L15 10L20 5L15 0L10 5Z" fill="#020506"/></g><g transform="translate(432.67,162.25) scale(2.7039999999999997) rotate(0)"><path d="M10 5L5 0L0 5L5 10L0 15L5 20L10 15L15 20L20 15L15 10L20 5L15 0L10 5Z" fill="#39b3e3"/></g><g transform="translate(486.75,162.25) scale(2.7039999999999997) rotate(0)"><path d="M10 5L5 0L0 5L5 10L0 15L5 20L10 15L15 20L20 15L15 10L20 5L15 0L10 5Z" fill="#257595"/></g><g transform="translate(540.83,162.25) scale(2.7039999999999997) rotate(0)"><path d="M10 5L5 0L0 5L5 10L0 15L5 20L10 15L15 20L20 15L15 10L20 5L15 0L10 5Z" fill="#e11bf7"/></g><g transform="translate(594.92,162.25) scale(2.7039999999999997) rotate(0)"><path d="M10 5L5 0L0 5L5 10L0 15L5 20L10 15L15 20L20 15L15 10L20 5L15 0L10 5Z" fill="#17475a"/></g><g transform="translate(649,162.25) scale(2.7039999999999997) rotate(0)"><path d="M10 5L5 0L0 5L5 10L0 15L5 20L10 15L15 20L20 15L15 10L20 5L15 0L10 5Z" fill="#0f2e3b"/></g><g transform="translate(703.08,162.25) scale(2.7039999999999997) rotate(0)"><path d="M10 5L5 0L0 5L5 10L0 15L5 20L10 15L15 20L20 15L15 10L20 5L15 0L10 5Z" fill="#010304"/></g><rect x="757.1666666666667" y="162.25" width="54.083333333333336" height="54.083333333333336" fill="#000000"/><g transform="translate(757.17,162.25) scale(1.3519999999999999) rotate(0)"><path d="M10 5L5 0L0 5L5 10L0 15L5 20L10 15L15 20L20 15L15 10L20 5L15 0L10 5Z" fill="#24718f"/></g><g transform="translate(784.21,162.25) scale(1.3519999999999999) rotate(0)"><path d="M10 5L5 0L0 5L5 10L0 15L5 20L10 15L15 20L20 15L15 10L20 5L15 0L10 5Z" fill="#660c71"/></g><g transform="translate(757.17,189.29) scale(1.3519999999999999) rotate(0)"><path d="M10 5L5 0L0 5L5 10L0 15L5 20L10 15L15 20L20 15L15 10L20 5L15 0L10 5Z" fill="#03090c"/></g><g transform="translate(784.21,189.29) scale(1.3519999999999999) rotate(0)"><path d="M10 5L5 0L0 5L5 10L0 15L5 20L10 15L15 20L20 15L15 10L20 5L15 0L10 5Z" fill="#39b2e2"/></g><g transform="translate(811.25,162.25) scale(2.7039999999999997) rotate(0)"><path d="M10 5L5 0L0 5L5 10L0 15L5 20L10 15L15 20L20 15L15 10L20 5L15 0L10 5Z" fill="#d41ae9"/></g><rect x="865.3333333333334" y="162.25" width="54.083333333333336" height="54.083333333333336" fill="#000000"/><g transform="translate(865.33,162.25) scale(1.3519999999999999) rotate(0)"><path d="M10 5L5 0L0 5L5 10L0 15L5 20L10 15L15 20L20 15L15 10L20 5L15 0L10 5Z" fill="#184b60"/></g><g transform="translate(892.38,162.25) scale(1.3519999999999999) rotate(0)"><path d="M10 5L5 0L0 5L5 10L0 15L5 20L10 15L15 20L20 15L15 10L20 5L15 0L10 5Z" fill="#226a86"/></g><g transform="translate(865.33,189.29) scale(1.3519999999999999) rotate(0)"><path d="M10 5L5 0L0 5L5 10L0 15L5 20L10 15L15 20L20 15L15 10L20 5L15 0L10 5Z" fill="#123746"/></g><g transform="translate(892.38,189.29) scale(1.3519999999999999) rotate(0)"><path d="M10 5L5 0L0 5L5 10L0 15L5 20L10 15L15 20L20 15L15 10L20 5L15 0L10 5Z" fill="#dd1bf3"/></g><rect x="919.4166666666667" y="162.25" width="54.083333333333336" height="54.083333333333336" fill="#000000"/><g transform="translate(919.42,162.25) scale(1.3519999999999999) rotate(0)"><path d="M10 5L5 0L0 5L5 10L0 15L5 20L10 15L15 20L20 15L15 10L20 5L15 0L10 5Z" fill="#310636"/></g><g transform="translate(946.46,162.25) scale(1.3519999999999999) rotate(0)"><path d="M10 5L5 0L0 5L5 10L0 15L5 20L10 15L15 20L20 15L15 10L20 5L15 0L10 5Z" fill="#d51aeb"/></g><g transform="translate(919.42,189.29) scale(1.3519999999999999) rotate(0)"><path d="M10 5L5 0L0 5L5 10L0 15L5 20L10 15L15 20L20 15L15 10L20 5L15 0L10 5Z" fill="#34a5d1"/></g><g transform="translate(946.46,189.29) scale(1.3519999999999999) rotate(0)"><path d="M10 5L5 0L0 5L5 10L0 15L5 20L10 15L15 20L20 15L15 10L20 5L15 0L10 5Z" fill="#1b546b"/></g><g transform="translate(973.5,162.25) scale(2.7039999999999997) rotate(0)"><path d="M10 5L5 0L0 5L5 10L0 15L5 20L10 15L15 20L20 15L15 10L20 5L15 0L10 5Z" fill="#184c60"/></g><rect x="1027.5833333333335" y="162.25" width="54.083333333333336" height="54.083333333333336" fill="#000000"/><g transform="translate(1027.58,162.25) scale(1.3519999999999999) rotate(0)"><path d="M10 5L5 0L0 5L5 10L0 15L5 20L10 15L15 20L20 15L15 10L20 5L15 0L10 5Z" fill="#c318d7"/></g><g transform="translate(1054.63,162.25) scale(1.3519999999999999) rotate(0)"><path d="M10 5L5 0L0 5L5 10L0 15L5 20L10 15L15 20L20 15L15 10L20 5L15 0L10 5Z" fill="#38073e"/></g><g transform="translate(1027.58,189.29) scale(1.3519999999999999) rotate(0)"><path d="M10 5L5 0L0 5L5 10L0 15L5 20L10 15L15 20L20 15L15 10L20 5L15 0L10 5Z" fill="#2d0532"/></g><g transform="translate(1054.63,189.29) scale(1.3519999999999999) rotate(0)"><path d="M10 5L5 0L0 5L5 10L0 15L5 20L10 15L15 20L20 15L15 10L20 5L15 0L10 5Z" fill="#2b88ac"/></g><g transform="translate(1081.67,162.25) scale(2.7039999999999997) rotate(0)"><path d="M10 5L5 0L0 5L5 10L0 15L5 20L10 15L15 20L20 15L15 10L20 5L15 0L10 5Z" fill="#123a49"/></g><g transform="translate(0,216.33) scale(2.7039999999999997) rotate(0)"><path d="M10 5L5 0L0 5L5 10L0 15L5 20L10 15L15 20L20 15L15 10L20 5L15 0L10 5Z" fill="#c918dd"/></g><g transform="translate(54.08,216.33) scale(2.7039999999999997) rotate(0)"><path d="M10 5L5 0L0 5L5 10L0 15L5 20L10 15L15 20L20 15L15 10L20 5L15 0L10 5Z" fill="#2d8fb5"/></g><rect x="108.16666666666667" y="216.33333333333334" width="54.083333333333336" height="54.083333333333336" fill="#000000"/><g transform="translate(108.17,216.33) scale(1.3519999999999999) rotate(0)"><path d="M10 5L5 0L0 5L5 10L0 15L5 20L10 15L15 20L20 15L15 10L20 5L15 0L10 5Z" fill="#7b0f87"/></g><g transform="translate(135.21,216.33) scale(1.3519999999999999) rotate(0)"><path d="M10 5L5 0L0 5L5 10L0 15L5 20L10 15L15 20L20 15L15 10L20 5L15 0L10 5Z" fill="#d119e6"/></g><g transform="translate(108.17,243.38) scale(1.3519999999999999) rotate(0)"><path d="M10 5L5 0L0 5L5 10L0 15L5 20L10 15L15 20L20 15L15 10L20 5L15 0L10 5Z" fill="#143d4e"/></g><g transform="translate(135.21,243.38) scale(1.3519999999999999) rotate(0)"><path d="M10 5L5 0L0 5L5 10L0 15L5 20L10 15L15 20L20 15L15 10L20 5L15 0L10 5Z" fill="#bf17d2"/></g><rect x="162.25" y="216.33333333333334" width="54.083333333333336" height="54.083333333333336" fill="#000000"/><g transform="translate(162.25,216.33) scale(1.3519999999999999) rotate(0)"><path d="M10 5L5 0L0 5L5 10L0 15L5 20L10 15L15 20L20 15L15 10L20 5L15 0L10 5Z" fill="#1b566d"/></g><g transform="translate(189.29,216.33) scale(1.3519999999999999) rotate(0)"><path d="M10 5L5 0L0 5L5 10L0 15L5 20L10 15L15 20L20 15L15 10L20 5L15 0L10 5Z" fill="#1e5f79"/></g><g transform="translate(162.25,243.38) scale(1.3519999999999999) rotate(0)"><path d="M10 5L5 0L0 5L5 10L0 15L5 20L10 15L15 20L20 15L15 10L20 5L15 0L10 5Z" fill="#630c6d"/></g><g transform="translate(189.29,243.38) scale(1.3519999999999999) rotate(0)"><path d="M10 5L5 0L0 5L5 10L0 15L5 20L10 15L15 20L20 15L15 10L20 5L15 0L10 5Z" fill="#123948"/></g><rect x="216.33333333333334" y="216.33333333333334" width="54.083333333333336" height="54.083333333333336" fill="#000000"/><g transform="translate(216.33,216.33) scale(1.3519999999999999) rotate(0)"><path d="M10 5L5 0L0 5L5 10L0 15L5 20L10 15L15 20L20 15L15 10L20 5L15 0L10 5Z" fill="#3cbbed"/></g><g transform="translate(243.38,216.33) scale(1.3519999999999999) rotate(0)"><path d="M10 5L5 0L0 5L5 10L0 15L5 20L10 15L15 20L20 15L15 10L20 5L15 0L10 5Z" fill="#660c70"/></g><g transform="translate(216.33,243.38) scale(1.3519999999999999) rotate(0)"><path d="M10 5L5 0L0 5L5 10L0 15L5 20L10 15L15 20L20 15L15 10L20 5L15 0L10 5Z" fill="#1f637e"/></g><g transform="translate(243.38,243.38) scale(1.3519999999999999) rotate(0)"><path d="M10 5L5 0L0 5L5 10L0 15L5 20L10 15L15 20L20 15L15 10L20 5L15 0L10 5Z" fill="#9e13ae"/></g><g transform="translate(270.42,216.33) scale(2.7039999999999997) rotate(0)"><path d="M10 5L5 0L0 5L5 10L0 15L5 20L10 15L15 20L20 15L15 10L20 5L15 0L10 5Z" fill="#c318d7"/></g><g transform="translate(324.5,216.33) scale(2.7039999999999997) rotate(0)"><path d="M10 5L5 0L0 5L5 10L0 15L5 20L10 15L15 20L20 15L15 10L20 5L15 0L10 5Z" fill="#030a0d"/></g><g transform="translate(378.58,216.33) scale(2.7039999999999997) rotate(0)"><path d="M10 5L5 0L0 5L5 10L0 15L5 20L10 15L15 20L20 15L15 10L20 5L15 0L10 5Z" fill="#020002"/></g><g transform="translate(432.67,216.33) scale(2.7039999999999997) rotate(0)"><path d="M10 5L5 0L0 5L5 10L0 15L5 20L10 15L15 20L20 15L15 10L20 5L15 0L10 5Z" fill="#3dc0f3"/></g><g transform="translate(486.75,216.33) scale(2.7039999999999997) rotate(0)"><path d="M10 5L5 0L0 5L5 10L0 15L5 20L10 15L15 20L20 15L15 10L20 5L15 0L10 5Z" fill="#0c010e"/></g><rect x="540.8333333333334" y="216.33333333333334" width="54.083333333333336" height="54.083333333333336" fill="#000000"/><g transform="translate(540.83,216.33) scale(1.3519999999999999) rotate(0)"><path d="M10 5L5 0L0 5L5 10L0 15L5 20L10 15L15 20L20 15L15 10L20 5L15 0L10 5Z" fill="#040d11"/></g><g transform="translate(567.88,216.33) scale(1.3519999999999999) rotate(0)"><path d="M10 5L5 0L0 5L5 10L0 15L5 20L10 15L15 20L20 15L15 10L20 5L15 0L10 5Z" fill="#2d8eb4"/></g><g transform="translate(540.83,243.38) scale(1.3519999999999999) rotate(0)"><path d="M10 5L5 0L0 5L5 10L0 15L5 20L10 15L15 20L20 15L15 10L20 5L15 0L10 5Z" fill="#070107"/></g><g transform="translate(567.88,243.38) scale(1.3519999999999999) rotate(0)"><path d="M10 5L5 0L0 5L5 10L0 15L5 20L10 15L15 20L20 15L15 10L20 5L15 0L10 5Z" fill="#740e80"/></g><g transform="translate(594.92,216.33) scale(2.7039999999999997) rotate(0)"><path d="M10 5L5 0L0 5L5 10L0 15L5 20L10 15L15 20L20 15L15 10L20 5L15 0L10 5Z" fill="#640c6e"/></g><g transform="translate(649,216.33) scale(2.7039999999999997) rotate(0)"><path d="M10 5L5 0L0 5L5 10L0 15L5 20L10 15L15 20L20 15L15 10L20 5L15 0L10 5Z" fill="#a814b8"/></g><g transform="translate(703.08,216.33) scale(2.7039999999999997) rotate(0)"><path d="M10 5L5 0L0 5L5 10L0 15L5 20L10 15L15 20L20 15L15 10L20 5L15 0L10 5Z" fill="#37073d"/></g><rect x="757.1666666666667" y="216.33333333333334" width="54.083333333333336" height="54.083333333333336" fill="#000000"/><g transform="translate(757.17,216.33) scale(1.3519999999999999) rotate(0)"><path d="M10 5L5 0L0 5L5 10L0 15L5 20L10 15L15 20L20 15L15 10L20 5L15 0L10 5Z" fill="#2f94bc"/></g><g transform="translate(784.21,216.33) scale(1.3519999999999999) rotate(0)"><path d="M10 5L5 0L0 5L5 10L0 15L5 20L10 15L15 20L20 15L15 10L20 5L15 0L10 5Z" fill="#100211"/></g><g transform="translate(757.17,243.38) scale(1.3519999999999999) rotate(0)"><path d="M10 5L5 0L0 5L5 10L0 15L5 20L10 15L15 20L20 15L15 10L20 5L15 0L10 5Z" fill="#020607"/></g><g transform="translate(784.21,243.38) scale(1.3519999999999999) rotate(0)"><path d="M10 5L5 0L0 5L5 10L0 15L5 20L10 15L15 20L20 15L15 10L20 5L15 0L10 5Z" fill="#051115"/></g><rect x="811.25" y="216.33333333333334" width="54.083333333333336" height="54.083333333333336" fill="#000000"/><g transform="translate(811.25,216.33) scale(1.3519999999999999) rotate(0)"><path d="M10 5L5 0L0 5L5 10L0 15L5 20L10 15L15 20L20 15L15 10L20 5L15 0L10 5Z" fill="#b115c3"/></g><g transform="translate(838.29,216.33) scale(1.3519999999999999) rotate(0)"><path d="M10 5L5 0L0 5L5 10L0 15L5 20L10 15L15 20L20 15L15 10L20 5L15 0L10 5Z" fill="#1d5c74"/></g><g transform="translate(811.25,243.38) scale(1.3519999999999999) rotate(0)"><path d="M10 5L5 0L0 5L5 10L0 15L5 20L10 15L15 20L20 15L15 10L20 5L15 0L10 5Z" fill="#b616c8"/></g><g transform="translate(838.29,243.38) scale(1.3519999999999999) rotate(0)"><path d="M10 5L5 0L0 5L5 10L0 15L5 20L10 15L15 20L20 15L15 10L20 5L15 0L10 5Z" fill="#d71aec"/></g><g transform="translate(865.33,216.33) scale(2.7039999999999997) rotate(0)"><path d="M10 5L5 0L0 5L5 10L0 15L5 20L10 15L15 20L20 15L15 10L20 5L15 0L10 5Z" fill="#20637e"/></g><g transform="translate(919.42,216.33) scale(2.7039999999999997) rotate(0)"><path d="M10 5L5 0L0 5L5 10L0 15L5 20L10 15L15 20L20 15L15 10L20 5L15 0L10 5Z" fill="#3096be"/></g><g transform="translate(973.5,216.33) scale(2.7039999999999997) rotate(0)"><path d="M10 5L5 0L0 5L5 10L0 15L5 20L10 15L15 20L20 15L15 10L20 5L15 0L10 5Z" fill="#3a0740"/></g><rect x="1027.5833333333335" y="216.33333333333334" width="54.083333333333336" height="54.083333333333336" fill="#000000"/><g transform="translate(1027.58,216.33) scale(1.3519999999999999) rotate(0)"><path d="M10 5L5 0L0 5L5 10L0 15L5 20L10 15L15 20L20 15L15 10L20 5L15 0L10 5Z" fill="#3c0742"/></g><g transform="translate(1054.63,216.33) scale(1.3519999999999999) rotate(0)"><path d="M10 5L5 0L0 5L5 10L0 15L5 20L10 15L15 20L20 15L15 10L20 5L15 0L10 5Z" fill="#400846"/></g><g transform="translate(1027.58,243.38) scale(1.3519999999999999) rotate(0)"><path d="M10 5L5 0L0 5L5 10L0 15L5 20L10 15L15 20L20 15L15 10L20 5L15 0L10 5Z" fill="#184c61"/></g><g transform="translate(1054.63,243.38) scale(1.3519999999999999) rotate(0)"><path d="M10 5L5 0L0 5L5 10L0 15L5 20L10 15L15 20L20 15L15 10L20 5L15 0L10 5Z" fill="#510a59"/></g><g transform="translate(1081.67,216.33) scale(2.7039999999999997) rotate(0)"><path d="M10 5L5 0L0 5L5 10L0 15L5 20L10 15L15 20L20 15L15 10L20 5L15 0L10 5Z" fill="#2d8cb2"/></g><rect x="0" y="270.4166666666667" width="54.083333333333336" height="54.083333333333336" fill="#000000"/><g transform="translate(0,270.42) scale(1.3519999999999999) rotate(0)"><path d="M10 5L5 0L0 5L5 10L0 15L5 20L10 15L15 20L20 15L15 10L20 5L15 0L10 5Z" fill="#3a0740"/></g><g transform="translate(27.04,270.42) scale(1.3519999999999999) rotate(0)"><path d="M10 5L5 0L0 5L5 10L0 15L5 20L10 15L15 20L20 15L15 10L20 5L15 0L10 5Z" fill="#2982a5"/></g><g transform="translate(0,297.46) scale(1.3519999999999999) rotate(0)"><path d="M10 5L5 0L0 5L5 10L0 15L5 20L10 15L15 20L20 15L15 10L20 5L15 0L10 5Z" fill="#35a8d5"/></g><g transform="translate(27.04,297.46) scale(1.3519999999999999) rotate(0)"><path d="M10 5L5 0L0 5L5 10L0 15L5 20L10 15L15 20L20 15L15 10L20 5L15 0L10 5Z" fill="#257594"/></g><rect x="54.083333333333336" y="270.4166666666667" width="54.083333333333336" height="54.083333333333336" fill="#000000"/><g transform="translate(54.08,270.42) scale(1.3519999999999999) rotate(0)"><path d="M10 5L5 0L0 5L5 10L0 15L5 20L10 15L15 20L20 15L15 10L20 5L15 0L10 5Z" fill="#1b031e"/></g><g transform="translate(81.13,270.42) scale(1.3519999999999999) rotate(0)"><path d="M10 5L5 0L0 5L5 10L0 15L5 20L10 15L15 20L20 15L15 10L20 5L15 0L10 5Z" fill="#133c4c"/></g><g transform="translate(54.08,297.46) scale(1.3519999999999999) rotate(0)"><path d="M10 5L5 0L0 5L5 10L0 15L5 20L10 15L15 20L20 15L15 10L20 5L15 0L10 5Z" fill="#c318d6"/></g><g transform="translate(81.13,297.46) scale(1.3519999999999999) rotate(0)"><path d="M10 5L5 0L0 5L5 10L0 15L5 20L10 15L15 20L20 15L15 10L20 5L15 0L10 5Z" fill="#760e82"/></g><rect x="108.16666666666667" y="270.4166666666667" width="54.083333333333336" height="54.083333333333336" fill="#000000"/><g transform="translate(108.17,270.42) scale(1.3519999999999999) rotate(0)"><path d="M10 5L5 0L0 5L5 10L0 15L5 20L10 15L15 20L20 15L15 10L20 5L15 0L10 5Z" fill="#0e2b37"/></g><g transform="translate(135.21,270.42) scale(1.3519999999999999) rotate(0)"><path d="M10 5L5 0L0 5L5 10L0 15L5 20L10 15L15 20L20 15L15 10L20 5L15 0L10 5Z" fill="#3dbef2"/></g><g transform="translate(108.17,297.46) scale(1.3519999999999999) rotate(0)"><path d="M10 5L5 0L0 5L5 10L0 15L5 20L10 15L15 20L20 15L15 10L20 5L15 0L10 5Z" fill="#27799a"/></g><g transform="translate(135.21,297.46) scale(1.3519999999999999) rotate(0)"><path d="M10 5L5 0L0 5L5 10L0 15L5 20L10 15L15 20L20 15L15 10L20 5L15 0L10 5Z" fill="#2e0632"/></g><g transform="translate(162.25,270.42) scale(2.7039999999999997) rotate(0)"><path d="M10 5L5 0L0 5L5 10L0 15L5 20L10 15L15 20L20 15L15 10L20 5L15 0L10 5Z" fill="#27052a"/></g><g transform="translate(216.33,270.42) scale(2.7039999999999997) rotate(0)"><path d="M10 5L5 0L0 5L5 10L0 15L5 20L10 15L15 20L20 15L15 10L20 5L15 0L10 5Z" fill="#39b3e4"/></g><g transform="translate(270.42,270.42) scale(2.7039999999999997) rotate(0)"><path d="M10 5L5 0L0 5L5 10L0 15L5 20L10 15L15 20L20 15L15 10L20 5L15 0L10 5Z" fill="#540a5c"/></g><g transform="translate(324.5,270.42) scale(2.7039999999999997) rotate(0)"><path d="M10 5L5 0L0 5L5 10L0 15L5 20L10 15L15 20L20 15L15 10L20 5L15 0L10 5Z" fill="#010506"/></g><g transform="translate(378.58,270.42) scale(2.7039999999999997) rotate(0)"><path d="M10 5L5 0L0 5L5 10L0 15L5 20L10 15L15 20L20 15L15 10L20 5L15 0L10 5Z" fill="#861093"/></g><rect x="432.6666666666667" y="270.4166666666667" width="54.083333333333336" height="54.083333333333336" fill="#000000"/><g transform="translate(432.67,270.42) scale(1.3519999999999999) rotate(0)"><path d="M10 5L5 0L0 5L5 10L0 15L5 20L10 15L15 20L20 15L15 10L20 5L15 0L10 5Z" fill="#1e5f78"/></g><g transform="translate(459.71,270.42) scale(1.3519999999999999) rotate(0)"><path d="M10 5L5 0L0 5L5 10L0 15L5 20L10 15L15 20L20 15L15 10L20 5L15 0L10 5Z" fill="#154153"/></g><g transform="translate(432.67,297.46) scale(1.3519999999999999) rotate(0)"><path d="M10 5L5 0L0 5L5 10L0 15L5 20L10 15L15 20L20 15L15 10L20 5L15 0L10 5Z" fill="#7b0f87"/></g><g transform="translate(459.71,297.46) scale(1.3519999999999999) rotate(0)"><path d="M10 5L5 0L0 5L5 10L0 15L5 20L10 15L15 20L20 15L15 10L20 5L15 0L10 5Z" fill="#410847"/></g><g transform="translate(486.75,270.42) scale(2.7039999999999997) rotate(0)"><path d="M10 5L5 0L0 5L5 10L0 15L5 20L10 15L15 20L20 15L15 10L20 5L15 0L10 5Z" fill="#10323f"/></g><g transform="translate(540.83,270.42) scale(2.7039999999999997) rotate(0)"><path d="M10 5L5 0L0 5L5 10L0 15L5 20L10 15L15 20L20 15L15 10L20 5L15 0L10 5Z" fill="#36aad8"/></g><g transform="translate(594.92,270.42) scale(2.7039999999999997) rotate(0)"><path d="M10 5L5 0L0 5L5 10L0 15L5 20L10 15L15 20L20 15L15 10L20 5L15 0L10 5Z" fill="#e81cff"/></g><rect x="649" y="270.4166666666667" width="54.083333333333336" height="54.083333333333336" fill="#000000"/><g transform="translate(649,270.42) scale(1.3519999999999999) rotate(0)"><path d="M10 5L5 0L0 5L5 10L0 15L5 20L10 15L15 20L20 15L15 10L20 5L15 0L10 5Z" fill="#ce19e2"/></g><g transform="translate(676.04,270.42) scale(1.3519999999999999) rotate(0)"><path d="M10 5L5 0L0 5L5 10L0 15L5 20L10 15L15 20L20 15L15 10L20 5L15 0L10 5Z" fill="#1c576f"/></g><g transform="translate(649,297.46) scale(1.3519999999999999) rotate(0)"><path d="M10 5L5 0L0 5L5 10L0 15L5 20L10 15L15 20L20 15L15 10L20 5L15 0L10 5Z" fill="#27052b"/></g><g transform="translate(676.04,297.46) scale(1.3519999999999999) rotate(0)"><path d="M10 5L5 0L0 5L5 10L0 15L5 20L10 15L15 20L20 15L15 10L20 5L15 0L10 5Z" fill="#2f93bb"/></g><g transform="translate(703.08,270.42) scale(2.7039999999999997) rotate(0)"><path d="M10 5L5 0L0 5L5 10L0 15L5 20L10 15L15 20L20 15L15 10L20 5L15 0L10 5Z" fill="#b916cb"/></g><rect x="757.1666666666667" y="270.4166666666667" width="54.083333333333336" height="54.083333333333336" fill="#000000"/><g transform="translate(757.17,270.42) scale(1.3519999999999999) rotate(0)"><path d="M10 5L5 0L0 5L5 10L0 15L5 20L10 15L15 20L20 15L15 10L20 5L15 0L10 5Z" fill="#e21bf8"/></g><g transform="translate(784.21,270.42) scale(1.3519999999999999) rotate(0)"><path d="M10 5L5 0L0 5L5 10L0 15L5 20L10 15L15 20L20 15L15 10L20 5L15 0L10 5Z" fill="#3bb9eb"/></g><g transform="translate(757.17,297.46) scale(1.3519999999999999) rotate(0)"><path d="M10 5L5 0L0 5L5 10L0 15L5 20L10 15L15 20L20 15L15 10L20 5L15 0L10 5Z" fill="#1e0421"/></g><g transform="translate(784.21,297.46) scale(1.3519999999999999) rotate(0)"><path d="M10 5L5 0L0 5L5 10L0 15L5 20L10 15L15 20L20 15L15 10L20 5L15 0L10 5Z" fill="#da1af0"/></g><rect x="811.25" y="270.4166666666667" width="54.083333333333336" height="54.083333333333336" fill="#000000"/><g transform="translate(811.25,270.42) scale(1.3519999999999999) rotate(0)"><path d="M10 5L5 0L0 5L5 10L0 15L5 20L10 15L15 20L20 15L15 10L20 5L15 0L10 5Z" fill="#000000"/></g><g transform="translate(838.29,270.42) scale(1.3519999999999999) rotate(0)"><path d="M10 5L5 0L0 5L5 10L0 15L5 20L10 15L15 20L20 15L15 10L20 5L15 0L10 5Z" fill="#287d9e"/></g><g transform="translate(811.25,297.46) scale(1.3519999999999999) rotate(0)"><path d="M10 5L5 0L0 5L5 10L0 15L5 20L10 15L15 20L20 15L15 10L20 5L15 0L10 5Z" fill="#35a7d4"/></g><g transform="translate(838.29,297.46) scale(1.3519999999999999) rotate(0)"><path d="M10 5L5 0L0 5L5 10L0 15L5 20L10 15L15 20L20 15L15 10L20 5L15 0L10 5Z" fill="#39b3e3"/></g><rect x="865.3333333333334" y="270.4166666666667" width="54.083333333333336" height="54.083333333333336" fill="#000000"/><g transform="translate(865.33,270.42) scale(1.3519999999999999) rotate(0)"><path d="M10 5L5 0L0 5L5 10L0 15L5 20L10 15L15 20L20 15L15 10L20 5L15 0L10 5Z" fill="#91119f"/></g><g transform="translate(892.38,270.42) scale(1.3519999999999999) rotate(0)"><path d="M10 5L5 0L0 5L5 10L0 15L5 20L10 15L15 20L20 15L15 10L20 5L15 0L10 5Z" fill="#4f0a57"/></g><g transform="translate(865.33,297.46) scale(1.3519999999999999) rotate(0)"><path d="M10 5L5 0L0 5L5 10L0 15L5 20L10 15L15 20L20 15L15 10L20 5L15 0L10 5Z" fill="#216884"/></g><g transform="translate(892.38,297.46) scale(1.3519999999999999) rotate(0)"><path d="M10 5L5 0L0 5L5 10L0 15L5 20L10 15L15 20L20 15L15 10L20 5L15 0L10 5Z" fill="#277b9c"/></g><g transform="translate(919.42,270.42) scale(2.7039999999999997) rotate(0)"><path d="M10 5L5 0L0 5L5 10L0 15L5 20L10 15L15 20L20 15L15 10L20 5L15 0L10 5Z" fill="#4c0954"/></g><g transform="translate(973.5,270.42) scale(2.7039999999999997) rotate(0)"><path d="M10 5L5 0L0 5L5 10L0 15L5 20L10 15L15 20L20 15L15 10L20 5L15 0L10 5Z" fill="#610c6b"/></g><g transform="translate(1027.58,270.42) scale(2.7039999999999997) rotate(0)"><path d="M10 5L5 0L0 5L5 10L0 15L5 20L10 15L15 20L20 15L15 10L20 5L15 0L10 5Z" fill="#216884"/></g><rect x="1081.6666666666667" y="270.4166666666667" width="54.083333333333336" height="54.083333333333336" fill="#000000"/><g transform="translate(1081.67,270.42) scale(1.3519999999999999) rotate(0)"><path d="M10 5L5 0L0 5L5 10L0 15L5 20L10 15L15 20L20 15L15 10L20 5L15 0L10 5Z" fill="#020507"/></g><g transform="translate(1108.71,270.42) scale(1.3519999999999999) rotate(0)"><path d="M10 5L5 0L0 5L5 10L0 15L5 20L10 15L15 20L20 15L15 10L20 5L15 0L10 5Z" fill="#33a0cb"/></g><g transform="translate(1081.67,297.46) scale(1.3519999999999999) rotate(0)"><path d="M10 5L5 0L0 5L5 10L0 15L5 20L10 15L15 20L20 15L15 10L20 5L15 0L10 5Z" fill="#2981a3"/></g><g transform="translate(1108.71,297.46) scale(1.3519999999999999) rotate(0)"><path d="M10 5L5 0L0 5L5 10L0 15L5 20L10 15L15 20L20 15L15 10L20 5L15 0L10 5Z" fill="#aa15bb"/></g><g transform="translate(0,324.5) scale(2.7039999999999997) rotate(0)"><path d="M10 5L5 0L0 5L5 10L0 15L5 20L10 15L15 20L20 15L15 10L20 5L15 0L10 5Z" fill="#1a5167"/></g><g transform="translate(54.08,324.5) scale(2.7039999999999997) rotate(0)"><path d="M10 5L5 0L0 5L5 10L0 15L5 20L10 15L15 20L20 15L15 10L20 5L15 0L10 5Z" fill="#5c0b65"/></g><g transform="translate(108.17,324.5) scale(2.7039999999999997) rotate(0)"><path d="M10 5L5 0L0 5L5 10L0 15L5 20L10 15L15 20L20 15L15 10L20 5L15 0L10 5Z" fill="#319bc5"/></g><rect x="162.25" y="324.5" width="54.083333333333336" height="54.083333333333336" fill="#000000"/><g transform="translate(162.25,324.5) scale(1.3519999999999999) rotate(0)"><path d="M10 5L5 0L0 5L5 10L0 15L5 20L10 15L15 20L20 15L15 10L20 5L15 0L10 5Z" fill="#1e5d76"/></g><g transform="translate(189.29,324.5) scale(1.3519999999999999) rotate(0)"><path d="M10 5L5 0L0 5L5 10L0 15L5 20L10 15L15 20L20 15L15 10L20 5L15 0L10 5Z" fill="#133c4c"/></g><g transform="translate(162.25,351.54) scale(1.3519999999999999) rotate(0)"><path d="M10 5L5 0L0 5L5 10L0 15L5 20L10 15L15 20L20 15L15 10L20 5L15 0L10 5Z" fill="#d019e5"/></g><g transform="translate(189.29,351.54) scale(1.3519999999999999) rotate(0)"><path d="M10 5L5 0L0 5L5 10L0 15L5 20L10 15L15 20L20 15L15 10L20 5L15 0L10 5Z" fill="#680d73"/></g><g transform="translate(216.33,324.5) scale(2.7039999999999997) rotate(0)"><path d="M10 5L5 0L0 5L5 10L0 15L5 20L10 15L15 20L20 15L15 10L20 5L15 0L10 5Z" fill="#257392"/></g><g transform="translate(270.42,324.5) scale(2.7039999999999997) rotate(0)"><path d="M10 5L5 0L0 5L5 10L0 15L5 20L10 15L15 20L20 15L15 10L20 5L15 0L10 5Z" fill="#27799a"/></g><g transform="translate(324.5,324.5) scale(2.7039999999999997) rotate(0)"><path d="M10 5L5 0L0 5L5 10L0 15L5 20L10 15L15 20L20 15L15 10L20 5L15 0L10 5Z" fill="#780e83"/></g><g transform="translate(378.58,324.5) scale(2.7039999999999997) rotate(0)"><path d="M10 5L5 0L0 5L5 10L0 15L5 20L10 15L15 20L20 15L15 10L20 5L15 0L10 5Z" fill="#5a0b63"/></g><g transform="translate(432.67,324.5) scale(2.7039999999999997) rotate(0)"><path d="M10 5L5 0L0 5L5 10L0 15L5 20L10 15L15 20L20 15L15 10L20 5L15 0L10 5Z" fill="#000102"/></g><g transform="translate(486.75,324.5) scale(2.7039999999999997) rotate(0)"><path d="M10 5L5 0L0 5L5 10L0 15L5 20L10 15L15 20L20 15L15 10L20 5L15 0L10 5Z" fill="#1a5369"/></g><g transform="translate(540.83,324.5) scale(2.7039999999999997) rotate(0)"><path d="M10 5L5 0L0 5L5 10L0 15L5 20L10 15L15 20L20 15L15 10L20 5L15 0L10 5Z" fill="#6c0d76"/></g><rect x="594.9166666666667" y="324.5" width="54.083333333333336" height="54.083333333333336" fill="#000000"/><g transform="translate(594.92,324.5) scale(1.3519999999999999) rotate(0)"><path d="M10 5L5 0L0 5L5 10L0 15L5 20L10 15L15 20L20 15L15 10L20 5L15 0L10 5Z" fill="#b716c9"/></g><g transform="translate(621.96,324.5) scale(1.3519999999999999) rotate(0)"><path d="M10 5L5 0L0 5L5 10L0 15L5 20L10 15L15 20L20 15L15 10L20 5L15 0L10 5Z" fill="#320637"/></g><g transform="translate(594.92,351.54) scale(1.3519999999999999) rotate(0)"><path d="M10 5L5 0L0 5L5 10L0 15L5 20L10 15L15 20L20 15L15 10L20 5L15 0L10 5Z" fill="#1d5c75"/></g><g transform="translate(621.96,351.54) scale(1.3519999999999999) rotate(0)"><path d="M10 5L5 0L0 5L5 10L0 15L5 20L10 15L15 20L20 15L15 10L20 5L15 0L10 5Z" fill="#36a9d7"/></g><rect x="649" y="324.5" width="54.083333333333336" height="54.083333333333336" fill="#000000"/><g transform="translate(649,324.5) scale(1.3519999999999999) rotate(0)"><path d="M10 5L5 0L0 5L5 10L0 15L5 20L10 15L15 20L20 15L15 10L20 5L15 0L10 5Z" fill="#2e91b7"/></g><g transform="translate(676.04,324.5) scale(1.3519999999999999) rotate(0)"><path d="M10 5L5 0L0 5L5 10L0 15L5 20L10 15L15 20L20 15L15 10L20 5L15 0L10 5Z" fill="#319ac3"/></g><g transform="translate(649,351.54) scale(1.3519999999999999) rotate(0)"><path d="M10 5L5 0L0 5L5 10L0 15L5 20L10 15L15 20L20 15L15 10L20 5L15 0L10 5Z" fill="#b416c6"/></g><g transform="translate(676.04,351.54) scale(1.3519999999999999) rotate(0)"><path d="M10 5L5 0L0 5L5 10L0 15L5 20L10 15L15 20L20 15L15 10L20 5L15 0L10 5Z" fill="#194e63"/></g><g transform="translate(703.08,324.5) scale(2.7039999999999997) rotate(0)"><path d="M10 5L5 0L0 5L5 10L0 15L5 20L10 15L15 20L20 15L15 10L20 5L15 0L10 5Z" fill="#226b88"/></g><g transform="translate(757.17,324.5) scale(2.7039999999999997) rotate(0)"><path d="M10 5L5 0L0 5L5 10L0 15L5 20L10 15L15 20L20 15L15 10L20 5L15 0L10 5Z" fill="#db1af0"/></g><g transform="translate(811.25,324.5) scale(2.7039999999999997) rotate(0)"><path d="M10 5L5 0L0 5L5 10L0 15L5 20L10 15L15 20L20 15L15 10L20 5L15 0L10 5Z" fill="#5b0b64"/></g><g transform="translate(865.33,324.5) scale(2.7039999999999997) rotate(0)"><path d="M10 5L5 0L0 5L5 10L0 15L5 20L10 15L15 20L20 15L15 10L20 5L15 0L10 5Z" fill="#03080a"/></g><g transform="translate(919.42,324.5) scale(2.7039999999999997) rotate(0)"><path d="M10 5L5 0L0 5L5 10L0 15L5 20L10 15L15 20L20 15L15 10L20 5L15 0L10 5Z" fill="#9a13a9"/></g><g transform="translate(973.5,324.5) scale(2.7039999999999997) rotate(0)"><path d="M10 5L5 0L0 5L5 10L0 15L5 20L10 15L15 20L20 15L15 10L20 5L15 0L10 5Z" fill="#0f303d"/></g><g transform="translate(1027.58,324.5) scale(2.7039999999999997) rotate(0)"><path d="M10 5L5 0L0 5L5 10L0 15L5 20L10 15L15 20L20 15L15 10L20 5L15 0L10 5Z" fill="#0c2630"/></g><rect x="1081.6666666666667" y="324.5" width="54.083333333333336" height="54.083333333333336" fill="#000000"/><g transform="translate(1081.67,324.5) scale(1.3519999999999999) rotate(0)"><path d="M10 5L5 0L0 5L5 10L0 15L5 20L10 15L15 20L20 15L15 10L20 5L15 0L10 5Z" fill="#2b86aa"/></g><g transform="translate(1108.71,324.5) scale(1.3519999999999999) rotate(0)"><path d="M10 5L5 0L0 5L5 10L0 15L5 20L10 15L15 20L20 15L15 10L20 5L15 0L10 5Z" fill="#c818dc"/></g><g transform="translate(1081.67,351.54) scale(1.3519999999999999) rotate(0)"><path d="M10 5L5 0L0 5L5 10L0 15L5 20L10 15L15 20L20 15L15 10L20 5L15 0L10 5Z" fill="#3ec2f7"/></g><g transform="translate(1108.71,351.54) scale(1.3519999999999999) rotate(0)"><path d="M10 5L5 0L0 5L5 10L0 15L5 20L10 15L15 20L20 15L15 10L20 5L15 0L10 5Z" fill="#26052a"/></g><rect x="0" y="378.58333333333337" width="54.083333333333336" height="54.083333333333336" fill="#000000"/><g transform="translate(0,378.58) scale(1.3519999999999999) rotate(0)"><path d="M10 5L5 0L0 5L5 10L0 15L5 20L10 15L15 20L20 15L15 10L20 5L15 0L10 5Z" fill="#e71cfe"/></g><g transform="translate(27.04,378.58) scale(1.3519999999999999) rotate(0)"><path d="M10 5L5 0L0 5L5 10L0 15L5 20L10 15L15 20L20 15L15 10L20 5L15 0L10 5Z" fill="#a814b9"/></g><g transform="translate(0,405.63) scale(1.3519999999999999) rotate(0)"><path d="M10 5L5 0L0 5L5 10L0 15L5 20L10 15L15 20L20 15L15 10L20 5L15 0L10 5Z" fill="#e01bf6"/></g><g transform="translate(27.04,405.63) scale(1.3519999999999999) rotate(0)"><path d="M10 5L5 0L0 5L5 10L0 15L5 20L10 15L15 20L20 15L15 10L20 5L15 0L10 5Z" fill="#3097bf"/></g><g transform="translate(54.08,378.58) scale(2.7039999999999997) rotate(0)"><path d="M10 5L5 0L0 5L5 10L0 15L5 20L10 15L15 20L20 15L15 10L20 5L15 0L10 5Z" fill="#3199c3"/></g><rect x="108.16666666666667" y="378.58333333333337" width="54.083333333333336" height="54.083333333333336" fill="#000000"/><g transform="translate(108.17,378.58) scale(1.3519999999999999) rotate(0)"><path d="M10 5L5 0L0 5L5 10L0 15L5 20L10 15L15 20L20 15L15 10L20 5L15 0L10 5Z" fill="#3dc0f4"/></g><g transform="translate(135.21,378.58) scale(1.3519999999999999) rotate(0)"><path d="M10 5L5 0L0 5L5 10L0 15L5 20L10 15L15 20L20 15L15 10L20 5L15 0L10 5Z" fill="#226a86"/></g><g transform="translate(108.17,405.63) scale(1.3519999999999999) rotate(0)"><path d="M10 5L5 0L0 5L5 10L0 15L5 20L10 15L15 20L20 15L15 10L20 5L15 0L10 5Z" fill="#257392"/></g><g transform="translate(135.21,405.63) scale(1.3519999999999999) rotate(0)"><path d="M10 5L5 0L0 5L5 10L0 15L5 20L10 15L15 20L20 15L15 10L20 5L15 0L10 5Z" fill="#610c6b"/></g><g transform="translate(162.25,378.58) scale(2.7039999999999997) rotate(0)"><path d="M10 5L5 0L0 5L5 10L0 15L5 20L10 15L15 20L20 15L15 10L20 5L15 0L10 5Z" fill="#5b0b64"/></g><g transform="translate(216.33,378.58) scale(2.7039999999999997) rotate(0)"><path d="M10 5L5 0L0 5L5 10L0 15L5 20L10 15L15 20L20 15L15 10L20 5L15 0L10 5Z" fill="#c117d4"/></g><g transform="translate(270.42,378.58) scale(2.7039999999999997) rotate(0)"><path d="M10 5L5 0L0 5L5 10L0 15L5 20L10 15L15 20L20 15L15 10L20 5L15 0L10 5Z" fill="#cf19e4"/></g><g transform="translate(324.5,378.58) scale(2.7039999999999997) rotate(0)"><path d="M10 5L5 0L0 5L5 10L0 15L5 20L10 15L15 20L20 15L15 10L20 5L15 0L10 5Z" fill="#770e83"/></g><g transform="translate(378.58,378.58) scale(2.7039999999999997) rotate(0)"><path d="M10 5L5 0L0 5L5 10L0 15L5 20L10 15L15 20L20 15L15 10L20 5L15 0L10 5Z" fill="#3dc0f4"/></g><g transform="translate(432.67,378.58) scale(2.7039999999999997) rotate(0)"><path d="M10 5L5 0L0 5L5 10L0 15L5 20L10 15L15 20L20 15L15 10L20 5L15 0L10 5Z" fill="#d019e5"/></g><rect x="486.75" y="378.58333333333337" width="54.083333333333336" height="54.083333333333336" fill="#000000"/><g transform="translate(486.75,378.58) scale(1.3519999999999999) rotate(0)"><path d="M10 5L5 0L0 5L5 10L0 15L5 20L10 15L15 20L20 15L15 10L20 5L15 0L10 5Z" fill="#3ec1f5"/></g><g transform="translate(513.79,378.58) scale(1.3519999999999999) rotate(0)"><path d="M10 5L5 0L0 5L5 10L0 15L5 20L10 15L15 20L20 15L15 10L20 5L15 0L10 5Z" fill="#b616c8"/></g><g transform="translate(486.75,405.63) scale(1.3519999999999999) rotate(0)"><path d="M10 5L5 0L0 5L5 10L0 15L5 20L10 15L15 20L20 15L15 10L20 5L15 0L10 5Z" fill="#091d25"/></g><g transform="translate(513.79,405.63) scale(1.3519999999999999) rotate(0)"><path d="M10 5L5 0L0 5L5 10L0 15L5 20L10 15L15 20L20 15L15 10L20 5L15 0L10 5Z" fill="#194e63"/></g><rect x="540.8333333333334" y="378.58333333333337" width="54.083333333333336" height="54.083333333333336" fill="#000000"/><g transform="translate(540.83,378.58) scale(1.3519999999999999) rotate(0)"><path d="M10 5L5 0L0 5L5 10L0 15L5 20L10 15L15 20L20 15L15 10L20 5L15 0L10 5Z" fill="#3dbef1"/></g><g transform="translate(567.88,378.58) scale(1.3519999999999999) rotate(0)"><path d="M10 5L5 0L0 5L5 10L0 15L5 20L10 15L15 20L20 15L15 10L20 5L15 0L10 5Z" fill="#b616c8"/></g><g transform="translate(540.83,405.63) scale(1.3519999999999999) rotate(0)"><path d="M10 5L5 0L0 5L5 10L0 15L5 20L10 15L15 20L20 15L15 10L20 5L15 0L10 5Z" fill="#236e8b"/></g><g transform="translate(567.88,405.63) scale(1.3519999999999999) rotate(0)"><path d="M10 5L5 0L0 5L5 10L0 15L5 20L10 15L15 20L20 15L15 10L20 5L15 0L10 5Z" fill="#230426"/></g><g transform="translate(594.92,378.58) scale(2.7039999999999997) rotate(0)"><path d="M10 5L5 0L0 5L5 10L0 15L5 20L10 15L15 20L20 15L15 10L20 5L15 0L10 5Z" fill="#48094f"/></g><g transform="translate(649,378.58) scale(2.7039999999999997) rotate(0)"><path d="M10 5L5 0L0 5L5 10L0 15L5 20L10 15L15 20L20 15L15 10L20 5L15 0L10 5Z" fill="#35063a"/></g><g transform="translate(703.08,378.58) scale(2.7039999999999997) rotate(0)"><path d="M10 5L5 0L0 5L5 10L0 15L5 20L10 15L15 20L20 15L15 10L20 5L15 0L10 5Z" fill="#570a5f"/></g><g transform="translate(757.17,378.58) scale(2.7039999999999997) rotate(0)"><path d="M10 5L5 0L0 5L5 10L0 15L5 20L10 15L15 20L20 15L15 10L20 5L15 0L10 5Z" fill="#38b1e1"/></g><g transform="translate(811.25,378.58) scale(2.7039999999999997) rotate(0)"><path d="M10 5L5 0L0 5L5 10L0 15L5 20L10 15L15 20L20 15L15 10L20 5L15 0L10 5Z" fill="#257494"/></g><g transform="translate(865.33,378.58) scale(2.7039999999999997) rotate(0)"><path d="M10 5L5 0L0 5L5 10L0 15L5 20L10 15L15 20L20 15L15 10L20 5L15 0L10 5Z" fill="#630c6d"/></g><g transform="translate(919.42,378.58) scale(2.7039999999999997) rotate(0)"><path d="M10 5L5 0L0 5L5 10L0 15L5 20L10 15L15 20L20 15L15 10L20 5L15 0L10 5Z" fill="#1a5369"/></g><g transform="translate(973.5,378.58) scale(2.7039999999999997) rotate(0)"><path d="M10 5L5 0L0 5L5 10L0 15L5 20L10 15L15 20L20 15L15 10L20 5L15 0L10 5Z" fill="#3dc1f5"/></g><rect x="1027.5833333333335" y="378.58333333333337" width="54.083333333333336" height="54.083333333333336" fill="#000000"/><g transform="translate(1027.58,378.58) scale(1.3519999999999999) rotate(0)"><path d="M10 5L5 0L0 5L5 10L0 15L5 20L10 15L15 20L20 15L15 10L20 5L15 0L10 5Z" fill="#0c252f"/></g><g transform="translate(1054.63,378.58) scale(1.3519999999999999) rotate(0)"><path d="M10 5L5 0L0 5L5 10L0 15L5 20L10 15L15 20L20 15L15 10L20 5L15 0L10 5Z" fill="#b316c5"/></g><g transform="translate(1027.58,405.63) scale(1.3519999999999999) rotate(0)"><path d="M10 5L5 0L0 5L5 10L0 15L5 20L10 15L15 20L20 15L15 10L20 5L15 0L10 5Z" fill="#20647e"/></g><g transform="translate(1054.63,405.63) scale(1.3519999999999999) rotate(0)"><path d="M10 5L5 0L0 5L5 10L0 15L5 20L10 15L15 20L20 15L15 10L20 5L15 0L10 5Z" fill="#0c2631"/></g><g transform="translate(1081.67,378.58) scale(2.7039999999999997) rotate(0)"><path d="M10 5L5 0L0 5L5 10L0 15L5 20L10 15L15 20L20 15L15 10L20 5L15 0L10 5Z" fill="#82108f"/></g><g transform="translate(0,432.67) scale(2.7039999999999997) rotate(0)"><path d="M10 5L5 0L0 5L5 10L0 15L5 20L10 15L15 20L20 15L15 10L20 5L15 0L10 5Z" fill="#9812a7"/></g><g transform="translate(54.08,432.67) scale(2.7039999999999997) rotate(0)"><path d="M10 5L5 0L0 5L5 10L0 15L5 20L10 15L15 20L20 15L15 10L20 5L15 0L10 5Z" fill="#091b22"/></g><g transform="translate(108.17,432.67) scale(2.7039999999999997) rotate(0)"><path d="M10 5L5 0L0 5L5 10L0 15L5 20L10 15L15 20L20 15L15 10L20 5L15 0L10 5Z" fill="#230426"/></g><g transform="translate(162.25,432.67) scale(2.7039999999999997) rotate(0)"><path d="M10 5L5 0L0 5L5 10L0 15L5 20L10 15L15 20L20 15L15 10L20 5L15 0L10 5Z" fill="#c618d9"/></g><g transform="translate(216.33,432.67) scale(2.7039999999999997) rotate(0)"><path d="M10 5L5 0L0 5L5 10L0 15L5 20L10 15L15 20L20 15L15 10L20 5L15 0L10 5Z" fill="#82108f"/></g><g transform="translate(270.42,432.67) scale(2.7039999999999997) rotate(0)"><path d="M10 5L5 0L0 5L5 10L0 15L5 20L10 15L15 20L20 15L15 10L20 5L15 0L10 5Z" fill="#061318"/></g><g transform="translate(324.5,432.67) scale(2.7039999999999997) rotate(0)"><path d="M10 5L5 0L0 5L5 10L0 15L5 20L10 15L15 20L20 15L15 10L20 5L15 0L10 5Z" fill="#194f64"/></g><g transform="translate(378.58,432.67) scale(2.7039999999999997) rotate(0)"><path d="M10 5L5 0L0 5L5 10L0 15L5 20L10 15L15 20L20 15L15 10L20 5L15 0L10 5Z" fill="#339fca"/></g><rect x="432.6666666666667" y="432.6666666666667" width="54.083333333333336" height="54.083333333333336" fill="#000000"/><g transform="translate(432.67,432.67) scale(1.3519999999999999) rotate(0)"><path d="M10 5L5 0L0 5L5 10L0 15L5 20L10 15L15 20L20 15L15 10L20 5L15 0L10 5Z" fill="#0e2d39"/></g><g transform="translate(459.71,432.67) scale(1.3519999999999999) rotate(0)"><path d="M10 5L5 0L0 5L5 10L0 15L5 20L10 15L15 20L20 15L15 10L20 5L15 0L10 5Z" fill="#257392"/></g><g transform="translate(432.67,459.71) scale(1.3519999999999999) rotate(0)"><path d="M10 5L5 0L0 5L5 10L0 15L5 20L10 15L15 20L20 15L15 10L20 5L15 0L10 5Z" fill="#e01bf6"/></g><g transform="translate(459.71,459.71) scale(1.3519999999999999) rotate(0)"><path d="M10 5L5 0L0 5L5 10L0 15L5 20L10 15L15 20L20 15L15 10L20 5L15 0L10 5Z" fill="#0d2a35"/></g><rect x="486.75" y="432.6666666666667" width="54.083333333333336" height="54.083333333333336" fill="#000000"/><g transform="translate(486.75,432.67) scale(1.3519999999999999) rotate(0)"><path d="M10 5L5 0L0 5L5 10L0 15L5 20L10 15L15 20L20 15L15 10L20 5L15 0L10 5Z" fill="#bf17d2"/></g><g transform="translate(513.79,432.67) scale(1.3519999999999999) rotate(0)"><path d="M10 5L5 0L0 5L5 10L0 15L5 20L10 15L15 20L20 15L15 10L20 5L15 0L10 5Z" fill="#37aedd"/></g><g transform="translate(486.75,459.71) scale(1.3519999999999999) rotate(0)"><path d="M10 5L5 0L0 5L5 10L0 15L5 20L10 15L15 20L20 15L15 10L20 5L15 0L10 5Z" fill="#2d8db3"/></g><g transform="translate(513.79,459.71) scale(1.3519999999999999) rotate(0)"><path d="M10 5L5 0L0 5L5 10L0 15L5 20L10 15L15 20L20 15L15 10L20 5L15 0L10 5Z" fill="#1b556b"/></g><rect x="540.8333333333334" y="432.6666666666667" width="54.083333333333336" height="54.083333333333336" fill="#000000"/><g transform="translate(540.83,432.67) scale(1.3519999999999999) rotate(0)"><path d="M10 5L5 0L0 5L5 10L0 15L5 20L10 15L15 20L20 15L15 10L20 5L15 0L10 5Z" fill="#130215"/></g><g transform="translate(567.88,432.67) scale(1.3519999999999999) rotate(0)"><path d="M10 5L5 0L0 5L5 10L0 15L5 20L10 15L15 20L20 15L15 10L20 5L15 0L10 5Z" fill="#0c2630"/></g><g transform="translate(540.83,459.71) scale(1.3519999999999999) rotate(0)"><path d="M10 5L5 0L0 5L5 10L0 15L5 20L10 15L15 20L20 15L15 10L20 5L15 0L10 5Z" fill="#2f95bd"/></g><g transform="translate(567.88,459.71) scale(1.3519999999999999) rotate(0)"><path d="M10 5L5 0L0 5L5 10L0 15L5 20L10 15L15 20L20 15L15 10L20 5L15 0L10 5Z" fill="#841091"/></g><rect x="594.9166666666667" y="432.6666666666667" width="54.083333333333336" height="54.083333333333336" fill="#000000"/><g transform="translate(594.92,432.67) scale(1.3519999999999999) rotate(0)"><path d="M10 5L5 0L0 5L5 10L0 15L5 20L10 15L15 20L20 15L15 10L20 5L15 0L10 5Z" fill="#081a21"/></g><g transform="translate(621.96,432.67) scale(1.3519999999999999) rotate(0)"><path d="M10 5L5 0L0 5L5 10L0 15L5 20L10 15L15 20L20 15L15 10L20 5L15 0L10 5Z" fill="#9c13ab"/></g><g transform="translate(594.92,459.71) scale(1.3519999999999999) rotate(0)"><path d="M10 5L5 0L0 5L5 10L0 15L5 20L10 15L15 20L20 15L15 10L20 5L15 0L10 5Z" fill="#2982a5"/></g><g transform="translate(621.96,459.71) scale(1.3519999999999999) rotate(0)"><path d="M10 5L5 0L0 5L5 10L0 15L5 20L10 15L15 20L20 15L15 10L20 5L15 0L10 5Z" fill="#010304"/></g><g transform="translate(649,432.67) scale(2.7039999999999997) rotate(0)"><path d="M10 5L5 0L0 5L5 10L0 15L5 20L10 15L15 20L20 15L15 10L20 5L15 0L10 5Z" fill="#d019e5"/></g><rect x="703.0833333333334" y="432.6666666666667" width="54.083333333333336" height="54.083333333333336" fill="#000000"/><g transform="translate(703.08,432.67) scale(1.3519999999999999) rotate(0)"><path d="M10 5L5 0L0 5L5 10L0 15L5 20L10 15L15 20L20 15L15 10L20 5L15 0L10 5Z" fill="#81108e"/></g><g transform="translate(730.13,432.67) scale(1.3519999999999999) rotate(0)"><path d="M10 5L5 0L0 5L5 10L0 15L5 20L10 15L15 20L20 15L15 10L20 5L15 0L10 5Z" fill="#9212a0"/></g><g transform="translate(703.08,459.71) scale(1.3519999999999999) rotate(0)"><path d="M10 5L5 0L0 5L5 10L0 15L5 20L10 15L15 20L20 15L15 10L20 5L15 0L10 5Z" fill="#2d8db3"/></g><g transform="translate(730.13,459.71) scale(1.3519999999999999) rotate(0)"><path d="M10 5L5 0L0 5L5 10L0 15L5 20L10 15L15 20L20 15L15 10L20 5L15 0L10 5Z" fill="#0d020f"/></g><g transform="translate(757.17,432.67) scale(2.7039999999999997) rotate(0)"><path d="M10 5L5 0L0 5L5 10L0 15L5 20L10 15L15 20L20 15L15 10L20 5L15 0L10 5Z" fill="#3fc6fb"/></g><g transform="translate(811.25,432.67) scale(2.7039999999999997) rotate(0)"><path d="M10 5L5 0L0 5L5 10L0 15L5 20L10 15L15 20L20 15L15 10L20 5L15 0L10 5Z" fill="#247391"/></g><rect x="865.3333333333334" y="432.6666666666667" width="54.083333333333336" height="54.083333333333336" fill="#000000"/><g transform="translate(865.33,432.67) scale(1.3519999999999999) rotate(0)"><path d="M10 5L5 0L0 5L5 10L0 15L5 20L10 15L15 20L20 15L15 10L20 5L15 0L10 5Z" fill="#195065"/></g><g transform="translate(892.38,432.67) scale(1.3519999999999999) rotate(0)"><path d="M10 5L5 0L0 5L5 10L0 15L5 20L10 15L15 20L20 15L15 10L20 5L15 0L10 5Z" fill="#d81aed"/></g><g transform="translate(865.33,459.71) scale(1.3519999999999999) rotate(0)"><path d="M10 5L5 0L0 5L5 10L0 15L5 20L10 15L15 20L20 15L15 10L20 5L15 0L10 5Z" fill="#891197"/></g><g transform="translate(892.38,459.71) scale(1.3519999999999999) rotate(0)"><path d="M10 5L5 0L0 5L5 10L0 15L5 20L10 15L15 20L20 15L15 10L20 5L15 0L10 5Z" fill="#0f0210"/></g><g transform="translate(919.42,432.67) scale(2.7039999999999997) rotate(0)"><path d="M10 5L5 0L0 5L5 10L0 15L5 20L10 15L15 20L20 15L15 10L20 5L15 0L10 5Z" fill="#5d0b66"/></g><g transform="translate(973.5,432.67) scale(2.7039999999999997) rotate(0)"><path d="M10 5L5 0L0 5L5 10L0 15L5 20L10 15L15 20L20 15L15 10L20 5L15 0L10 5Z" fill="#26052a"/></g><g transform="translate(1027.58,432.67) scale(2.7039999999999997) rotate(0)"><path d="M10 5L5 0L0 5L5 10L0 15L5 20L10 15L15 20L20 15L15 10L20 5L15 0L10 5Z" fill="#17485c"/></g><g transform="translate(1081.67,432.67) scale(2.7039999999999997) rotate(0)"><path d="M10 5L5 0L0 5L5 10L0 15L5 20L10 15L15 20L20 15L15 10L20 5L15 0L10 5Z" fill="#319bc5"/></g><g transform="translate(0,486.75) scale(2.7039999999999997) rotate(0)"><path d="M10 5L5 0L0 5L5 10L0 15L5 20L10 15L15 20L20 15L15 10L20 5L15 0L10 5Z" fill="#216985"/></g><rect x="54.083333333333336" y="486.75" width="54.083333333333336" height="54.083333333333336" fill="#000000"/><g transform="translate(54.08,486.75) scale(1.3519999999999999) rotate(0)"><path d="M10 5L5 0L0 5L5 10L0 15L5 20L10 15L15 20L20 15L15 10L20 5L15 0L10 5Z" fill="#140216"/></g><g transform="translate(81.13,486.75) scale(1.3519999999999999) rotate(0)"><path d="M10 5L5 0L0 5L5 10L0 15L5 20L10 15L15 20L20 15L15 10L20 5L15 0L10 5Z" fill="#19031c"/></g><g transform="translate(54.08,513.79) scale(1.3519999999999999) rotate(0)"><path d="M10 5L5 0L0 5L5 10L0 15L5 20L10 15L15 20L20 15L15 10L20 5L15 0L10 5Z" fill="#3fc6fb"/></g><g transform="translate(81.13,513.79) scale(1.3519999999999999) rotate(0)"><path d="M10 5L5 0L0 5L5 10L0 15L5 20L10 15L15 20L20 15L15 10L20 5L15 0L10 5Z" fill="#b716ca"/></g><g transform="translate(108.17,486.75) scale(2.7039999999999997) rotate(0)"><path d="M10 5L5 0L0 5L5 10L0 15L5 20L10 15L15 20L20 15L15 10L20 5L15 0L10 5Z" fill="#b516c7"/></g><g transform="translate(162.25,486.75) scale(2.7039999999999997) rotate(0)"><path d="M10 5L5 0L0 5L5 10L0 15L5 20L10 15L15 20L20 15L15 10L20 5L15 0L10 5Z" fill="#1b546b"/></g><g transform="translate(216.33,486.75) scale(2.7039999999999997) rotate(0)"><path d="M10 5L5 0L0 5L5 10L0 15L5 20L10 15L15 20L20 15L15 10L20 5L15 0L10 5Z" fill="#861093"/></g><rect x="270.4166666666667" y="486.75" width="54.083333333333336" height="54.083333333333336" fill="#000000"/><g transform="translate(270.42,486.75) scale(1.3519999999999999) rotate(0)"><path d="M10 5L5 0L0 5L5 10L0 15L5 20L10 15L15 20L20 15L15 10L20 5L15 0L10 5Z" fill="#1b566d"/></g><g transform="translate(297.46,486.75) scale(1.3519999999999999) rotate(0)"><path d="M10 5L5 0L0 5L5 10L0 15L5 20L10 15L15 20L20 15L15 10L20 5L15 0L10 5Z" fill="#010001"/></g><g transform="translate(270.42,513.79) scale(1.3519999999999999) rotate(0)"><path d="M10 5L5 0L0 5L5 10L0 15L5 20L10 15L15 20L20 15L15 10L20 5L15 0L10 5Z" fill="#0e2d3a"/></g><g transform="translate(297.46,513.79) scale(1.3519999999999999) rotate(0)"><path d="M10 5L5 0L0 5L5 10L0 15L5 20L10 15L15 20L20 15L15 10L20 5L15 0L10 5Z" fill="#17031a"/></g><g transform="translate(324.5,486.75) scale(2.7039999999999997) rotate(0)"><path d="M10 5L5 0L0 5L5 10L0 15L5 20L10 15L15 20L20 15L15 10L20 5L15 0L10 5Z" fill="#257695"/></g><g transform="translate(378.58,486.75) scale(2.7039999999999997) rotate(0)"><path d="M10 5L5 0L0 5L5 10L0 15L5 20L10 15L15 20L20 15L15 10L20 5L15 0L10 5Z" fill="#500a58"/></g><g transform="translate(432.67,486.75) scale(2.7039999999999997) rotate(0)"><path d="M10 5L5 0L0 5L5 10L0 15L5 20L10 15L15 20L20 15L15 10L20 5L15 0L10 5Z" fill="#194e63"/></g><g transform="translate(486.75,486.75) scale(2.7039999999999997) rotate(0)"><path d="M10 5L5 0L0 5L5 10L0 15L5 20L10 15L15 20L20 15L15 10L20 5L15 0L10 5Z" fill="#1e5d77"/></g><g transform="translate(540.83,486.75) scale(2.7039999999999997) rotate(0)"><path d="M10 5L5 0L0 5L5 10L0 15L5 20L10 15L15 20L20 15L15 10L20 5L15 0L10 5Z" fill="#287d9e"/></g><g transform="translate(594.92,486.75) scale(2.7039999999999997) rotate(0)"><path d="M10 5L5 0L0 5L5 10L0 15L5 20L10 15L15 20L20 15L15 10L20 5L15 0L10 5Z" fill="#a714b8"/></g><g transform="translate(649,486.75) scale(2.7039999999999997) rotate(0)"><path d="M10 5L5 0L0 5L5 10L0 15L5 20L10 15L15 20L20 15L15 10L20 5L15 0L10 5Z" fill="#040d11"/></g><rect x="703.0833333333334" y="486.75" width="54.083333333333336" height="54.083333333333336" fill="#000000"/><g transform="translate(703.08,486.75) scale(1.3519999999999999) rotate(0)"><path d="M10 5L5 0L0 5L5 10L0 15L5 20L10 15L15 20L20 15L15 10L20 5L15 0L10 5Z" fill="#19031b"/></g><g transform="translate(730.13,486.75) scale(1.3519999999999999) rotate(0)"><path d="M10 5L5 0L0 5L5 10L0 15L5 20L10 15L15 20L20 15L15 10L20 5L15 0L10 5Z" fill="#0c252f"/></g><g transform="translate(703.08,513.79) scale(1.3519999999999999) rotate(0)"><path d="M10 5L5 0L0 5L5 10L0 15L5 20L10 15L15 20L20 15L15 10L20 5L15 0L10 5Z" fill="#000000"/></g><g transform="translate(730.13,513.79) scale(1.3519999999999999) rotate(0)"><path d="M10 5L5 0L0 5L5 10L0 15L5 20L10 15L15 20L20 15L15 10L20 5L15 0L10 5Z" fill="#0a1f27"/></g><rect x="757.1666666666667" y="486.75" width="54.083333333333336" height="54.083333333333336" fill="#000000"/><g transform="translate(757.17,486.75) scale(1.3519999999999999) rotate(0)"><path d="M10 5L5 0L0 5L5 10L0 15L5 20L10 15L15 20L20 15L15 10L20 5L15 0L10 5Z" fill="#0b232c"/></g><g transform="translate(784.21,486.75) scale(1.3519999999999999) rotate(0)"><path d="M10 5L5 0L0 5L5 10L0 15L5 20L10 15L15 20L20 15L15 10L20 5L15 0L10 5Z" fill="#339fc9"/></g><g transform="translate(757.17,513.79) scale(1.3519999999999999) rotate(0)"><path d="M10 5L5 0L0 5L5 10L0 15L5 20L10 15L15 20L20 15L15 10L20 5L15 0L10 5Z" fill="#750e81"/></g><g transform="translate(784.21,513.79) scale(1.3519999999999999) rotate(0)"><path d="M10 5L5 0L0 5L5 10L0 15L5 20L10 15L15 20L20 15L15 10L20 5L15 0L10 5Z" fill="#061318"/></g><g transform="translate(811.25,486.75) scale(2.7039999999999997) rotate(0)"><path d="M10 5L5 0L0 5L5 10L0 15L5 20L10 15L15 20L20 15L15 10L20 5L15 0L10 5Z" fill="#d31ae8"/></g><rect x="865.3333333333334" y="486.75" width="54.083333333333336" height="54.083333333333336" fill="#000000"/><g transform="translate(865.33,486.75) scale(1.3519999999999999) rotate(0)"><path d="M10 5L5 0L0 5L5 10L0 15L5 20L10 15L15 20L20 15L15 10L20 5L15 0L10 5Z" fill="#03090c"/></g><g transform="translate(892.38,486.75) scale(1.3519999999999999) rotate(0)"><path d="M10 5L5 0L0 5L5 10L0 15L5 20L10 15L15 20L20 15L15 10L20 5L15 0L10 5Z" fill="#2980a2"/></g><g transform="translate(865.33,513.79) scale(1.3519999999999999) rotate(0)"><path d="M10 5L5 0L0 5L5 10L0 15L5 20L10 15L15 20L20 15L15 10L20 5L15 0L10 5Z" fill="#030004"/></g><g transform="translate(892.38,513.79) scale(1.3519999999999999) rotate(0)"><path d="M10 5L5 0L0 5L5 10L0 15L5 20L10 15L15 20L20 15L15 10L20 5L15 0L10 5Z" fill="#9112a0"/></g><rect x="919.4166666666667" y="486.75" width="54.083333333333336" height="54.083333333333336" fill="#000000"/><g transform="translate(919.42,486.75) scale(1.3519999999999999) rotate(0)"><path d="M10 5L5 0L0 5L5 10L0 15L5 20L10 15L15 20L20 15L15 10L20 5L15 0L10 5Z" fill="#1e5e77"/></g><g transform="translate(946.46,486.75) scale(1.3519999999999999) rotate(0)"><path d="M10 5L5 0L0 5L5 10L0 15L5 20L10 15L15 20L20 15L15 10L20 5L15 0L10 5Z" fill="#130215"/></g><g transform="translate(919.42,513.79) scale(1.3519999999999999) rotate(0)"><path d="M10 5L5 0L0 5L5 10L0 15L5 20L10 15L15 20L20 15L15 10L20 5L15 0L10 5Z" fill="#267695"/></g><g transform="translate(946.46,513.79) scale(1.3519999999999999) rotate(0)"><path d="M10 5L5 0L0 5L5 10L0 15L5 20L10 15L15 20L20 15L15 10L20 5L15 0L10 5Z" fill="#b616c8"/></g><g transform="translate(973.5,486.75) scale(2.7039999999999997) rotate(0)"><path d="M10 5L5 0L0 5L5 10L0 15L5 20L10 15L15 20L20 15L15 10L20 5L15 0L10 5Z" fill="#720e7e"/></g><rect x="1027.5833333333335" y="486.75" width="54.083333333333336" height="54.083333333333336" fill="#000000"/><g transform="translate(1027.58,486.75) scale(1.3519999999999999) rotate(0)"><path d="M10 5L5 0L0 5L5 10L0 15L5 20L10 15L15 20L20 15L15 10L20 5L15 0L10 5Z" fill="#28052c"/></g><g transform="translate(1054.63,486.75) scale(1.3519999999999999) rotate(0)"><path d="M10 5L5 0L0 5L5 10L0 15L5 20L10 15L15 20L20 15L15 10L20 5L15 0L10 5Z" fill="#0e2c38"/></g><g transform="translate(1027.58,513.79) scale(1.3519999999999999) rotate(0)"><path d="M10 5L5 0L0 5L5 10L0 15L5 20L10 15L15 20L20 15L15 10L20 5L15 0L10 5Z" fill="#020708"/></g><g transform="translate(1054.63,513.79) scale(1.3519999999999999) rotate(0)"><path d="M10 5L5 0L0 5L5 10L0 15L5 20L10 15L15 20L20 15L15 10L20 5L15 0L10 5Z" fill="#1f617b"/></g><rect x="1081.6666666666667" y="486.75" width="54.083333333333336" height="54.083333333333336" fill="#000000"/><g transform="translate(1081.67,486.75) scale(1.3519999999999999) rotate(0)"><path d="M10 5L5 0L0 5L5 10L0 15L5 20L10 15L15 20L20 15L15 10L20 5L15 0L10 5Z" fill="#39b2e1"/></g><g transform="translate(1108.71,486.75) scale(1.3519999999999999) rotate(0)"><path d="M10 5L5 0L0 5L5 10L0 15L5 20L10 15L15 20L20 15L15 10L20 5L15 0L10 5Z" fill="#184d62"/></g><g transform="translate(1081.67,513.79) scale(1.3519999999999999) rotate(0)"><path d="M10 5L5 0L0 5L5 10L0 15L5 20L10 15L15 20L20 15L15 10L20 5L15 0L10 5Z" fill="#730e7e"/></g><g transform="translate(1108.71,513.79) scale(1.3519999999999999) rotate(0)"><path d="M10 5L5 0L0 5L5 10L0 15L5 20L10 15L15 20L20 15L15 10L20 5L15 0L10 5Z" fill="#17031a"/></g><g transform="translate(0,540.83) scale(2.7039999999999997) rotate(0)"><path d="M10 5L5 0L0 5L5 10L0 15L5 20L10 15L15 20L20 15L15 10L20 5L15 0L10 5Z" fill="#7d0f8a"/></g><g transform="translate(54.08,540.83) scale(2.7039999999999997) rotate(0)"><path d="M10 5L5 0L0 5L5 10L0 15L5 20L10 15L15 20L20 15L15 10L20 5L15 0L10 5Z" fill="#154253"/></g><g transform="translate(108.17,540.83) scale(2.7039999999999997) rotate(0)"><path d="M10 5L5 0L0 5L5 10L0 15L5 20L10 15L15 20L20 15L15 10L20 5L15 0L10 5Z" fill="#44084b"/></g><rect x="162.25" y="540.8333333333334" width="54.083333333333336" height="54.083333333333336" fill="#000000"/><g transform="translate(162.25,540.83) scale(1.3519999999999999) rotate(0)"><path d="M10 5L5 0L0 5L5 10L0 15L5 20L10 15L15 20L20 15L15 10L20 5L15 0L10 5Z" fill="#891197"/></g><g transform="translate(189.29,540.83) scale(1.3519999999999999) rotate(0)"><path d="M10 5L5 0L0 5L5 10L0 15L5 20L10 15L15 20L20 15L15 10L20 5L15 0L10 5Z" fill="#081920"/></g><g transform="translate(162.25,567.88) scale(1.3519999999999999) rotate(0)"><path d="M10 5L5 0L0 5L5 10L0 15L5 20L10 15L15 20L20 15L15 10L20 5L15 0L10 5Z" fill="#3096be"/></g><g transform="translate(189.29,567.88) scale(1.3519999999999999) rotate(0)"><path d="M10 5L5 0L0 5L5 10L0 15L5 20L10 15L15 20L20 15L15 10L20 5L15 0L10 5Z" fill="#0d2a35"/></g><rect x="216.33333333333334" y="540.8333333333334" width="54.083333333333336" height="54.083333333333336" fill="#000000"/><g transform="translate(216.33,540.83) scale(1.3519999999999999) rotate(0)"><path d="M10 5L5 0L0 5L5 10L0 15L5 20L10 15L15 20L20 15L15 10L20 5L15 0L10 5Z" fill="#08191f"/></g><g transform="translate(243.38,540.83) scale(1.3519999999999999) rotate(0)"><path d="M10 5L5 0L0 5L5 10L0 15L5 20L10 15L15 20L20 15L15 10L20 5L15 0L10 5Z" fill="#18031b"/></g><g transform="translate(216.33,567.88) scale(1.3519999999999999) rotate(0)"><path d="M10 5L5 0L0 5L5 10L0 15L5 20L10 15L15 20L20 15L15 10L20 5L15 0L10 5Z" fill="#329ec8"/></g><g transform="translate(243.38,567.88) scale(1.3519999999999999) rotate(0)"><path d="M10 5L5 0L0 5L5 10L0 15L5 20L10 15L15 20L20 15L15 10L20 5L15 0L10 5Z" fill="#33a0cb"/></g><g transform="translate(270.42,540.83) scale(2.7039999999999997) rotate(0)"><path d="M10 5L5 0L0 5L5 10L0 15L5 20L10 15L15 20L20 15L15 10L20 5L15 0L10 5Z" fill="#be17d1"/></g><g transform="translate(324.5,540.83) scale(2.7039999999999997) rotate(0)"><path d="M10 5L5 0L0 5L5 10L0 15L5 20L10 15L15 20L20 15L15 10L20 5L15 0L10 5Z" fill="#6f0d7a"/></g><rect x="378.58333333333337" y="540.8333333333334" width="54.083333333333336" height="54.083333333333336" fill="#000000"/><g transform="translate(378.58,540.83) scale(1.3519999999999999) rotate(0)"><path d="M10 5L5 0L0 5L5 10L0 15L5 20L10 15L15 20L20 15L15 10L20 5L15 0L10 5Z" fill="#130215"/></g><g transform="translate(405.63,540.83) scale(1.3519999999999999) rotate(0)"><path d="M10 5L5 0L0 5L5 10L0 15L5 20L10 15L15 20L20 15L15 10L20 5L15 0L10 5Z" fill="#a113b1"/></g><g transform="translate(378.58,567.88) scale(1.3519999999999999) rotate(0)"><path d="M10 5L5 0L0 5L5 10L0 15L5 20L10 15L15 20L20 15L15 10L20 5L15 0L10 5Z" fill="#0a1f28"/></g><g transform="translate(405.63,567.88) scale(1.3519999999999999) rotate(0)"><path d="M10 5L5 0L0 5L5 10L0 15L5 20L10 15L15 20L20 15L15 10L20 5L15 0L10 5Z" fill="#a614b6"/></g><g transform="translate(432.67,540.83) scale(2.7039999999999997) rotate(0)"><path d="M10 5L5 0L0 5L5 10L0 15L5 20L10 15L15 20L20 15L15 10L20 5L15 0L10 5Z" fill="#26052a"/></g><rect x="486.75" y="540.8333333333334" width="54.083333333333336" height="54.083333333333336" fill="#000000"/><g transform="translate(486.75,540.83) scale(1.3519999999999999) rotate(0)"><path d="M10 5L5 0L0 5L5 10L0 15L5 20L10 15L15 20L20 15L15 10L20 5L15 0L10 5Z" fill="#d31ae8"/></g><g transform="translate(513.79,540.83) scale(1.3519999999999999) rotate(0)"><path d="M10 5L5 0L0 5L5 10L0 15L5 20L10 15L15 20L20 15L15 10L20 5L15 0L10 5Z" fill="#bc17cf"/></g><g transform="translate(486.75,567.88) scale(1.3519999999999999) rotate(0)"><path d="M10 5L5 0L0 5L5 10L0 15L5 20L10 15L15 20L20 15L15 10L20 5L15 0L10 5Z" fill="#050105"/></g><g transform="translate(513.79,567.88) scale(1.3519999999999999) rotate(0)"><path d="M10 5L5 0L0 5L5 10L0 15L5 20L10 15L15 20L20 15L15 10L20 5L15 0L10 5Z" fill="#1e5d76"/></g><g transform="translate(540.83,540.83) scale(2.7039999999999997) rotate(0)"><path d="M10 5L5 0L0 5L5 10L0 15L5 20L10 15L15 20L20 15L15 10L20 5L15 0L10 5Z" fill="#1f617b"/></g><rect x="594.9166666666667" y="540.8333333333334" width="54.083333333333336" height="54.083333333333336" fill="#000000"/><g transform="translate(594.92,540.83) scale(1.3519999999999999) rotate(0)"><path d="M10 5L5 0L0 5L5 10L0 15L5 20L10 15L15 20L20 15L15 10L20 5L15 0L10 5Z" fill="#133d4d"/></g><g transform="translate(621.96,540.83) scale(1.3519999999999999) rotate(0)"><path d="M10 5L5 0L0 5L5 10L0 15L5 20L10 15L15 20L20 15L15 10L20 5L15 0L10 5Z" fill="#36aad8"/></g><g transform="translate(594.92,567.88) scale(1.3519999999999999) rotate(0)"><path d="M10 5L5 0L0 5L5 10L0 15L5 20L10 15L15 20L20 15L15 10L20 5L15 0L10 5Z" fill="#2a85a8"/></g><g transform="translate(621.96,567.88) scale(1.3519999999999999) rotate(0)"><path d="M10 5L5 0L0 5L5 10L0 15L5 20L10 15L15 20L20 15L15 10L20 5L15 0L10 5Z" fill="#113544"/></g><g transform="translate(649,540.83) scale(2.7039999999999997) rotate(0)"><path d="M10 5L5 0L0 5L5 10L0 15L5 20L10 15L15 20L20 15L15 10L20 5L15 0L10 5Z" fill="#27052b"/></g><g transform="translate(703.08,540.83) scale(2.7039999999999997) rotate(0)"><path d="M10 5L5 0L0 5L5 10L0 15L5 20L10 15L15 20L20 15L15 10L20 5L15 0L10 5Z" fill="#3c0742"/></g><g transform="translate(757.17,540.83) scale(2.7039999999999997) rotate(0)"><path d="M10 5L5 0L0 5L5 10L0 15L5 20L10 15L15 20L20 15L15 10L20 5L15 0L10 5Z" fill="#09010a"/></g><g transform="translate(811.25,540.83) scale(2.7039999999999997) rotate(0)"><path d="M10 5L5 0L0 5L5 10L0 15L5 20L10 15L15 20L20 15L15 10L20 5L15 0L10 5Z" fill="#236e8b"/></g><rect x="865.3333333333334" y="540.8333333333334" width="54.083333333333336" height="54.083333333333336" fill="#000000"/><g transform="translate(865.33,540.83) scale(1.3519999999999999) rotate(0)"><path d="M10 5L5 0L0 5L5 10L0 15L5 20L10 15L15 20L20 15L15 10L20 5L15 0L10 5Z" fill="#0c2731"/></g><g transform="translate(892.38,540.83) scale(1.3519999999999999) rotate(0)"><path d="M10 5L5 0L0 5L5 10L0 15L5 20L10 15L15 20L20 15L15 10L20 5L15 0L10 5Z" fill="#144051"/></g><g transform="translate(865.33,567.88) scale(1.3519999999999999) rotate(0)"><path d="M10 5L5 0L0 5L5 10L0 15L5 20L10 15L15 20L20 15L15 10L20 5L15 0L10 5Z" fill="#040004"/></g><g transform="translate(892.38,567.88) scale(1.3519999999999999) rotate(0)"><path d="M10 5L5 0L0 5L5 10L0 15L5 20L10 15L15 20L20 15L15 10L20 5L15 0L10 5Z" fill="#34063a"/></g><g transform="translate(919.42,540.83) scale(2.7039999999999997) rotate(0)"><path d="M10 5L5 0L0 5L5 10L0 15L5 20L10 15L15 20L20 15L15 10L20 5L15 0L10 5Z" fill="#580b60"/></g><rect x="973.5" y="540.8333333333334" width="54.083333333333336" height="54.083333333333336" fill="#000000"/><g transform="translate(973.5,540.83) scale(1.3519999999999999) rotate(0)"><path d="M10 5L5 0L0 5L5 10L0 15L5 20L10 15L15 20L20 15L15 10L20 5L15 0L10 5Z" fill="#b716c9"/></g><g transform="translate(1000.54,540.83) scale(1.3519999999999999) rotate(0)"><path d="M10 5L5 0L0 5L5 10L0 15L5 20L10 15L15 20L20 15L15 10L20 5L15 0L10 5Z" fill="#19031c"/></g><g transform="translate(973.5,567.88) scale(1.3519999999999999) rotate(0)"><path d="M10 5L5 0L0 5L5 10L0 15L5 20L10 15L15 20L20 15L15 10L20 5L15 0L10 5Z" fill="#3ab6e7"/></g><g transform="translate(1000.54,567.88) scale(1.3519999999999999) rotate(0)"><path d="M10 5L5 0L0 5L5 10L0 15L5 20L10 15L15 20L20 15L15 10L20 5L15 0L10 5Z" fill="#194d62"/></g><g transform="translate(1027.58,540.83) scale(2.7039999999999997) rotate(0)"><path d="M10 5L5 0L0 5L5 10L0 15L5 20L10 15L15 20L20 15L15 10L20 5L15 0L10 5Z" fill="#0f0210"/></g><g transform="translate(1081.67,540.83) scale(2.7039999999999997) rotate(0)"><path d="M10 5L5 0L0 5L5 10L0 15L5 20L10 15L15 20L20 15L15 10L20 5L15 0L10 5Z" fill="#a314b3"/></g><rect x="0" y="594.9166666666667" width="54.083333333333336" height="54.083333333333336" fill="#000000"/><g transform="translate(0,594.92) scale(1.3519999999999999) rotate(0)"><path d="M10 5L5 0L0 5L5 10L0 15L5 20L10 15L15 20L20 15L15 10L20 5L15 0L10 5Z" fill="#db1af1"/></g><g transform="translate(27.04,594.92) scale(1.3519999999999999) rotate(0)"><path d="M10 5L5 0L0 5L5 10L0 15L5 20L10 15L15 20L20 15L15 10L20 5L15 0L10 5Z" fill="#120214"/></g><g transform="translate(0,621.96) scale(1.3519999999999999) rotate(0)"><path d="M10 5L5 0L0 5L5 10L0 15L5 20L10 15L15 20L20 15L15 10L20 5L15 0L10 5Z" fill="#a314b3"/></g><g transform="translate(27.04,621.96) scale(1.3519999999999999) rotate(0)"><path d="M10 5L5 0L0 5L5 10L0 15L5 20L10 15L15 20L20 15L15 10L20 5L15 0L10 5Z" fill="#194e63"/></g><g transform="translate(54.08,594.92) scale(2.7039999999999997) rotate(0)"><path d="M10 5L5 0L0 5L5 10L0 15L5 20L10 15L15 20L20 15L15 10L20 5L15 0L10 5Z" fill="#cf19e3"/></g><g transform="translate(108.17,594.92) scale(2.7039999999999997) rotate(0)"><path d="M10 5L5 0L0 5L5 10L0 15L5 20L10 15L15 20L20 15L15 10L20 5L15 0L10 5Z" fill="#550a5d"/></g><g transform="translate(162.25,594.92) scale(2.7039999999999997) rotate(0)"><path d="M10 5L5 0L0 5L5 10L0 15L5 20L10 15L15 20L20 15L15 10L20 5L15 0L10 5Z" fill="#ba16cd"/></g><g transform="translate(216.33,594.92) scale(2.7039999999999997) rotate(0)"><path d="M10 5L5 0L0 5L5 10L0 15L5 20L10 15L15 20L20 15L15 10L20 5L15 0L10 5Z" fill="#2e92b9"/></g><g transform="translate(270.42,594.92) scale(2.7039999999999997) rotate(0)"><path d="M10 5L5 0L0 5L5 10L0 15L5 20L10 15L15 20L20 15L15 10L20 5L15 0L10 5Z" fill="#b916cc"/></g><g transform="translate(324.5,594.92) scale(2.7039999999999997) rotate(0)"><path d="M10 5L5 0L0 5L5 10L0 15L5 20L10 15L15 20L20 15L15 10L20 5L15 0L10 5Z" fill="#1e5d77"/></g><g transform="translate(378.58,594.92) scale(2.7039999999999997) rotate(0)"><path d="M10 5L5 0L0 5L5 10L0 15L5 20L10 15L15 20L20 15L15 10L20 5L15 0L10 5Z" fill="#236f8d"/></g><rect x="432.6666666666667" y="594.9166666666667" width="54.083333333333336" height="54.083333333333336" fill="#000000"/><g transform="translate(432.67,594.92) scale(1.3519999999999999) rotate(0)"><path d="M10 5L5 0L0 5L5 10L0 15L5 20L10 15L15 20L20 15L15 10L20 5L15 0L10 5Z" fill="#28052c"/></g><g transform="translate(459.71,594.92) scale(1.3519999999999999) rotate(0)"><path d="M10 5L5 0L0 5L5 10L0 15L5 20L10 15L15 20L20 15L15 10L20 5L15 0L10 5Z" fill="#9512a4"/></g><g transform="translate(432.67,621.96) scale(1.3519999999999999) rotate(0)"><path d="M10 5L5 0L0 5L5 10L0 15L5 20L10 15L15 20L20 15L15 10L20 5L15 0L10 5Z" fill="#8f119d"/></g><g transform="translate(459.71,621.96) scale(1.3519999999999999) rotate(0)"><path d="M10 5L5 0L0 5L5 10L0 15L5 20L10 15L15 20L20 15L15 10L20 5L15 0L10 5Z" fill="#184c60"/></g><rect x="486.75" y="594.9166666666667" width="54.083333333333336" height="54.083333333333336" fill="#000000"/><g transform="translate(486.75,594.92) scale(1.3519999999999999) rotate(0)"><path d="M10 5L5 0L0 5L5 10L0 15L5 20L10 15L15 20L20 15L15 10L20 5L15 0L10 5Z" fill="#130215"/></g><g transform="translate(513.79,594.92) scale(1.3519999999999999) rotate(0)"><path d="M10 5L5 0L0 5L5 10L0 15L5 20L10 15L15 20L20 15L15 10L20 5L15 0L10 5Z" fill="#9512a4"/></g><g transform="translate(486.75,621.96) scale(1.3519999999999999) rotate(0)"><path d="M10 5L5 0L0 5L5 10L0 15L5 20L10 15L15 20L20 15L15 10L20 5L15 0L10 5Z" fill="#1c5870"/></g><g transform="translate(513.79,621.96) scale(1.3519999999999999) rotate(0)"><path d="M10 5L5 0L0 5L5 10L0 15L5 20L10 15L15 20L20 15L15 10L20 5L15 0L10 5Z" fill="#184b5f"/></g><g transform="translate(540.83,594.92) scale(2.7039999999999997) rotate(0)"><path d="M10 5L5 0L0 5L5 10L0 15L5 20L10 15L15 20L20 15L15 10L20 5L15 0L10 5Z" fill="#07171d"/></g><g transform="translate(594.92,594.92) scale(2.7039999999999997) rotate(0)"><path d="M10 5L5 0L0 5L5 10L0 15L5 20L10 15L15 20L20 15L15 10L20 5L15 0L10 5Z" fill="#6e0d79"/></g><g transform="translate(649,594.92) scale(2.7039999999999997) rotate(0)"><path d="M10 5L5 0L0 5L5 10L0 15L5 20L10 15L15 20L20 15L15 10L20 5L15 0L10 5Z" fill="#d019e4"/></g><g transform="translate(703.08,594.92) scale(2.7039999999999997) rotate(0)"><path d="M10 5L5 0L0 5L5 10L0 15L5 20L10 15L15 20L20 15L15 10L20 5L15 0L10 5Z" fill="#154355"/></g><rect x="757.1666666666667" y="594.9166666666667" width="54.083333333333336" height="54.083333333333336" fill="#000000"/><g transform="translate(757.17,594.92) scale(1.3519999999999999) rotate(0)"><path d="M10 5L5 0L0 5L5 10L0 15L5 20L10 15L15 20L20 15L15 10L20 5L15 0L10 5Z" fill="#2f94bc"/></g><g transform="translate(784.21,594.92) scale(1.3519999999999999) rotate(0)"><path d="M10 5L5 0L0 5L5 10L0 15L5 20L10 15L15 20L20 15L15 10L20 5L15 0L10 5Z" fill="#24718f"/></g><g transform="translate(757.17,621.96) scale(1.3519999999999999) rotate(0)"><path d="M10 5L5 0L0 5L5 10L0 15L5 20L10 15L15 20L20 15L15 10L20 5L15 0L10 5Z" fill="#d71aec"/></g><g transform="translate(784.21,621.96) scale(1.3519999999999999) rotate(0)"><path d="M10 5L5 0L0 5L5 10L0 15L5 20L10 15L15 20L20 15L15 10L20 5L15 0L10 5Z" fill="#0a1f28"/></g><g transform="translate(811.25,594.92) scale(2.7039999999999997) rotate(0)"><path d="M10 5L5 0L0 5L5 10L0 15L5 20L10 15L15 20L20 15L15 10L20 5L15 0L10 5Z" fill="#3a0740"/></g><g transform="translate(865.33,594.92) scale(2.7039999999999997) rotate(0)"><path d="M10 5L5 0L0 5L5 10L0 15L5 20L10 15L15 20L20 15L15 10L20 5L15 0L10 5Z" fill="#240427"/></g><g transform="translate(919.42,594.92) scale(2.7039999999999997) rotate(0)"><path d="M10 5L5 0L0 5L5 10L0 15L5 20L10 15L15 20L20 15L15 10L20 5L15 0L10 5Z" fill="#0d2833"/></g><rect x="973.5" y="594.9166666666667" width="54.083333333333336" height="54.083333333333336" fill="#000000"/><g transform="translate(973.5,594.92) scale(1.3519999999999999) rotate(0)"><path d="M10 5L5 0L0 5L5 10L0 15L5 20L10 15L15 20L20 15L15 10L20 5L15 0L10 5Z" fill="#100212"/></g><g transform="translate(1000.54,594.92) scale(1.3519999999999999) rotate(0)"><path d="M10 5L5 0L0 5L5 10L0 15L5 20L10 15L15 20L20 15L15 10L20 5L15 0L10 5Z" fill="#cc19e0"/></g><g transform="translate(973.5,621.96) scale(1.3519999999999999) rotate(0)"><path d="M10 5L5 0L0 5L5 10L0 15L5 20L10 15L15 20L20 15L15 10L20 5L15 0L10 5Z" fill="#339fca"/></g><g transform="translate(1000.54,621.96) scale(1.3519999999999999) rotate(0)"><path d="M10 5L5 0L0 5L5 10L0 15L5 20L10 15L15 20L20 15L15 10L20 5L15 0L10 5Z" fill="#133b4b"/></g><rect x="1027.5833333333335" y="594.9166666666667" width="54.083333333333336" height="54.083333333333336" fill="#000000"/><g transform="translate(1027.58,594.92) scale(1.3519999999999999) rotate(0)"><path d="M10 5L5 0L0 5L5 10L0 15L5 20L10 15L15 20L20 15L15 10L20 5L15 0L10 5Z" fill="#1f627d"/></g><g transform="translate(1054.63,594.92) scale(1.3519999999999999) rotate(0)"><path d="M10 5L5 0L0 5L5 10L0 15L5 20L10 15L15 20L20 15L15 10L20 5L15 0L10 5Z" fill="#040c0f"/></g><g transform="translate(1027.58,621.96) scale(1.3519999999999999) rotate(0)"><path d="M10 5L5 0L0 5L5 10L0 15L5 20L10 15L15 20L20 15L15 10L20 5L15 0L10 5Z" fill="#08191f"/></g><g transform="translate(1054.63,621.96) scale(1.3519999999999999) rotate(0)"><path d="M10 5L5 0L0 5L5 10L0 15L5 20L10 15L15 20L20 15L15 10L20 5L15 0L10 5Z" fill="#6e0d79"/></g><rect x="1081.6666666666667" y="594.9166666666667" width="54.083333333333336" height="54.083333333333336" fill="#000000"/><g transform="translate(1081.67,594.92) scale(1.3519999999999999) rotate(0)"><path d="M10 5L5 0L0 5L5 10L0 15L5 20L10 15L15 20L20 15L15 10L20 5L15 0L10 5Z" fill="#5a0b63"/></g><g transform="translate(1108.71,594.92) scale(1.3519999999999999) rotate(0)"><path d="M10 5L5 0L0 5L5 10L0 15L5 20L10 15L15 20L20 15L15 10L20 5L15 0L10 5Z" fill="#82108f"/></g><g transform="translate(1081.67,621.96) scale(1.3519999999999999) rotate(0)"><path d="M10 5L5 0L0 5L5 10L0 15L5 20L10 15L15 20L20 15L15 10L20 5L15 0L10 5Z" fill="#a113b1"/></g><g transform="translate(1108.71,621.96) scale(1.3519999999999999) rotate(0)"><path d="M10 5L5 0L0 5L5 10L0 15L5 20L10 15L15 20L20 15L15 10L20 5L15 0L10 5Z" fill="#1f607a"/></g></g></svg>